<svg width="500" height="500" viewBox="0 0 500 500" fill="none" xmlns="http://www.w3.org/2000/svg">
<path d="M241.277 24.1714C376.237 19.0114 485.277 131.022 475.687 265.942C467.717 378.172 376.017 468.391 263.747 474.981C148.647 481.731 43.4971 399.941 25.8071 285.511C4.78707 149.491 104.297 29.4014 241.277 24.1614V24.1714Z" fill="#010101"/>
<path d="M240.187 156.341C246.857 143.661 250.467 128.732 251.297 114.162C251.607 108.712 250.667 102.162 251.297 96.9616C251.927 91.7616 258.797 88.3415 263.347 87.8915C293.617 84.8815 299.087 123.361 296.987 145.601C295.157 164.931 287.097 179.482 282.987 197.422C281.987 201.782 279.767 209.422 286.417 210.212C297.847 211.562 313.227 209.842 325.257 210.182C338.177 210.552 356.677 210.621 366.747 219.771C377.857 229.861 378.127 249.521 364.307 257.121L299.687 257.341C291.947 258.721 292.157 269.191 299.737 270.571C318.727 271.761 339.367 269.131 358.167 270.601C383.357 272.561 384.407 308.992 358.167 310.922C338.657 312.352 317.417 309.812 297.727 310.902C290.377 311.732 290.077 322.331 297.357 323.551L357.607 323.721C369.597 325.721 374.397 337.962 369.927 348.712C365.947 358.292 358.677 360.931 348.837 361.511C329.657 362.651 309.437 360.301 290.257 361.871C284.547 364.681 285.587 372.861 291.867 374.231C309.577 375.511 329.417 372.641 346.877 374.241C357.317 375.201 357.727 384.762 355.187 392.912C351.137 405.882 337.687 410.392 325.267 411.132C297.527 412.792 268.157 409.832 240.247 411.132C226.367 410.292 212.747 408.851 199.617 404.111C181.557 397.591 167.127 383.622 146.927 382.142C139.477 381.592 135.497 383.762 128.997 378.462C125.017 375.212 123.037 370.822 122.597 365.702C124.377 332.662 120.287 297.231 122.597 264.471C123.177 256.261 127.637 249.481 136.617 249.471C145.597 249.461 151.747 250.712 160.567 247.432C176.037 241.672 197.777 213.861 208.567 200.621C219.357 187.381 231.957 172.041 240.207 156.361L240.187 156.341Z" fill="#FFFFFE"/>
</svg>
