<svg width="500" height="500" viewBox="0 0 500 500" fill="none" xmlns="http://www.w3.org/2000/svg">
<path d="M241.277 24.1714C376.237 19.0114 485.277 131.022 475.687 265.942C467.717 378.172 376.017 468.391 263.747 474.981C148.647 481.731 43.4971 399.941 25.8071 285.511C4.78707 149.491 104.297 29.4014 241.277 24.1614V24.1714Z" fill="#010101"/>
<path d="M317.817 366.742C345.097 360.462 366.497 352.052 381.497 345.172C402.987 335.312 409.237 328.132 415.327 323.102C428.177 312.492 432.047 288.132 432.047 281.002C432.047 281.002 432.787 261.522 428.597 253.042C424.487 243.882 418.777 237.931 410.487 232.451C398.577 224.571 380.787 225.812 367.107 221.502C364.917 220.812 364.997 213.612 364.987 208.742C364.977 193.102 362.187 177.862 358.367 162.572C356.367 154.562 352.977 142.652 346.047 137.602C336.717 130.802 318.357 131.192 307.257 132.312C303.937 132.642 299.557 134.092 296.337 134.132C293.877 134.162 288.267 132.642 285.517 132.072C256.517 126.052 205.017 110.732 180.557 132.462C173.717 138.532 172.797 146.022 169.517 153.842C163.467 168.242 155.067 182.852 149.857 197.412C146.827 205.862 145.677 214.702 143.517 223.332C142.687 226.672 139.447 230.542 136.277 231.892C116.977 240.152 98.1471 247.632 83.2971 262.772C83.1671 262.912 83.0271 263.032 82.8871 263.182L76.727 270.482C76.027 271.312 75.4971 272.272 75.1771 273.312C74.4671 273.922 74.107 274.772 73.667 275.562C73.597 275.682 73.527 275.812 73.467 275.942L72.7571 277.372C72.5671 277.702 72.487 277.922 72.347 278.182C71.667 278.832 71.3271 279.712 71.1271 280.612C68.8571 285.342 68.107 288.382 67.477 293.582C67.167 294.482 66.987 301.702 67.477 302.902C67.447 303.242 70.7671 317.692 72.9871 320.322C73.5071 320.942 73.8671 321.672 74.1771 322.422C76.3771 327.762 80.9071 332.782 84.7371 337.012C87.8571 340.442 91.297 343.782 94.847 346.462C95.497 346.952 100.217 349.722 102.227 350.792C104.467 351.982 125.417 361.271 125.487 361.451C125.617 361.781 132.547 363.792 132.547 363.792C141.667 366.462 150.887 368.882 160.177 371.072C165.197 372.142 180.867 374.752 183.777 375.042C193.957 376.462 205.117 377.532 217.137 377.972C235.427 378.642 251.997 377.712 266.417 376.062C283.557 372.952 300.707 369.852 317.847 366.742H317.817Z" fill="#191919" stroke="white" stroke-width="2.25" stroke-miterlimit="10"/>
<path d="M139.617 238.862C140.007 236.162 139.417 234.512 140.627 231.562C140.837 231.042 140.977 228.492 141.537 228.312C141.307 232.852 140.297 238.791 143.267 242.701C151.517 253.561 182.157 259.112 195.407 261.082C228.107 265.962 262.857 263.672 295.417 258.682C303.787 257.402 311.997 254.802 320.597 255.052C322.057 255.092 326.417 256.082 327.377 255.822C327.957 255.662 328.437 254.712 329.177 254.352C335.927 251.092 343.847 248.661 350.887 245.251C351.467 244.971 352.297 245.082 352.687 244.832C353.037 244.612 356.477 239.212 357.497 238.092C359.167 236.272 362.767 233.841 364.147 231.971C365.687 229.891 366.407 232.331 365.077 233.721C361.437 236.931 358.267 240.531 355.557 244.521L354.417 244.942C353.547 247.152 352.217 248.091 350.427 247.761L337.327 254.572C337.807 256.872 336.457 258.341 333.267 258.981C333.507 261.511 333.837 264.011 334.247 266.471C333.657 267.741 333.787 268.282 334.637 268.092C335.147 268.802 336.667 276.531 334.957 276.951C334.827 278.031 334.457 277.981 334.147 276.951C333.787 276.871 333.797 276.742 334.147 276.542C334.117 275.612 333.617 273.732 333.057 275.132C331.467 276.032 329.737 276.592 327.887 276.812C326.497 278.982 324.927 279.151 324.587 276.511C323.917 276.301 321.217 273.332 321.377 272.642C321.837 270.512 328.247 267.661 330.377 266.991C331.387 268.141 331.967 268.362 332.117 267.632C331.337 264.582 330.797 261.472 330.497 258.312C329.267 257.762 328.057 257.222 326.847 256.692C325.487 257.722 321.657 257.672 320.337 256.622C319.577 257.072 318.907 257.092 318.337 256.692C318.607 256.192 318.147 256.211 316.967 256.731C316.747 256.401 315.327 256.381 314.947 256.711C313.017 256.741 311.267 256.792 310.067 258.132C308.557 257.512 306.787 257.862 305.407 259.122C303.167 259.242 301.187 259.642 299.467 260.342C300.167 261.612 299.947 262.802 299.357 264.132C300.307 270.902 300.877 278.062 299.777 284.882C300.557 285.922 300.617 288.232 299.697 289.112C300.207 290.272 300.227 291.592 299.757 293.092C301.307 293.172 301.377 295.732 300.107 296.412C299.537 297.402 299.077 297.091 299.297 296.001C299.477 295.551 299.347 295.551 298.887 296.001C301.357 299.541 297.087 302.811 296.867 297.241C297.377 286.051 297.357 274.932 296.797 263.872C296.367 259.952 295.837 259.981 291.907 260.481C284.137 262.041 276.357 263.102 268.557 263.672C268.207 264.792 267.107 264.882 266.537 263.922C260.777 264.632 255.037 264.952 249.317 264.882C248.937 266.672 247.497 266.112 246.127 265.382L239.727 265.132C239.547 266.432 238.247 266.471 237.747 265.251C236.727 266.391 235.477 267.432 235.317 265.142L234.947 265.162C235.457 267.302 234.307 271.342 233.237 267.632L234.047 269.112C233.537 271.462 233.267 273.942 233.237 276.552C233.417 274.142 233.597 271.701 233.777 269.221L234.457 269.261C234.867 273.661 234.937 278.502 234.457 283.042C234.797 278.522 234.867 273.992 234.667 269.432C233.887 269.232 233.877 269.032 234.667 268.842C234.577 267.722 234.517 266.742 235.677 267.642C235.947 269.762 236.267 272.401 235.677 274.531C236.227 272.171 236.137 268.871 235.277 266.991C235.917 264.981 238.567 266.272 236.887 268.652C237.307 271.272 237.597 274.652 236.887 277.362C237.387 274.742 237.557 270.272 237.097 267.602C236.827 266.052 238.327 266.461 238.677 267.731C238.997 270.741 239.067 273.772 238.867 276.812C240.807 277.082 240.447 278.782 238.947 279.562C238.727 282.162 238.747 284.782 239.017 287.432C239.307 289.632 238.697 290.692 237.187 290.622L237.247 280.751C236.787 280.361 236.447 280.332 236.187 280.942C236.017 279.632 235.847 278.301 235.677 276.951C236.007 277.921 236.067 278.962 235.877 280.092L236.487 280.491C236.087 281.441 235.817 282.562 235.677 283.832C235.957 282.762 236.097 281.612 236.097 280.372L236.897 280.592L237.257 280.711L237.107 289.622C237.547 290.442 237.397 290.701 236.897 291.531C236.917 290.681 237.807 289.781 238.427 290.021C238.857 290.191 239.257 297.892 238.897 298.592C238.307 299.722 237.727 300.142 237.307 298.832C236.957 296.752 236.967 294.062 237.307 291.942C237.187 292.292 237.057 292.292 236.897 291.942C237.127 294.132 237.197 296.381 237.097 298.701C238.137 298.921 238.017 301.372 236.897 301.662C236.417 303.812 236.267 306.081 236.447 308.481L237.307 309.362C235.957 308.972 236.067 303.911 237.307 303.281C237.597 301.461 239.887 303.452 238.337 304.122C238.087 306.252 238.147 308.272 238.527 310.172C237.877 308.452 238.237 305.922 238.527 304.092C238.657 302.262 240.537 304.191 240.037 304.711C239.237 305.541 240.867 302.202 241.857 303.552C241.707 305.462 241.817 307.261 242.177 308.961C241.727 307.751 241.647 306.192 241.917 304.292C241.217 303.522 241.067 303.332 242.177 302.882C243.777 300.562 243.777 304.652 243.507 306.342L243.737 308.562C244.437 307.552 245.547 307.422 246.177 308.562C247.957 308.192 249.147 308.462 249.767 309.352C249.737 307.862 251.047 306.731 252.417 307.481C253.197 305.671 254.367 306.902 254.477 308.372C256.697 306.942 257.137 310.062 255.937 311.382C226.657 314.022 195.427 312.011 167.087 303.971C154.317 300.351 133.667 293.492 134.747 277.342C135.087 276.312 135.727 276.362 136.277 277.302C136.677 280.912 137.327 285.582 140.917 287.302C140.077 286.152 142.307 283.601 143.177 283.961C143.407 284.061 145.807 287.142 142.777 284.092C142.837 281.272 142.317 279.792 139.997 278.042C141.757 275.992 142.747 276.162 144.257 278.312C151.737 283.072 145.547 279.931 142.777 276.961C142.707 276.891 142.777 276.691 142.907 276.451C140.627 274.711 140.347 274.312 140.927 271.642C140.177 270.532 140.397 267.541 141.607 266.981C140.987 265.811 140.317 264.622 139.617 263.422C140.427 262.152 140.547 261.282 139.997 260.832C140.357 260.042 140.327 259.162 139.907 258.192C140.587 257.372 140.657 256.721 140.127 256.231C140.047 253.951 139.977 251.912 139.687 249.602C140.167 247.712 140.177 246.252 140.177 244.372C140.177 243.902 140.387 243.582 140.827 243.382C139.677 242.042 139.637 240.532 139.617 238.832V238.862Z" fill="#E3E0DD" stroke="white" stroke-miterlimit="10"/>
<path d="M255.937 311.412C255.727 310.432 255.477 309.532 255.937 308.582L253.507 309.792V306.951L252.687 308.972L251.887 308.782L251.687 307.762L250.267 308.982L252.697 309.782C251.667 309.512 249.407 310.562 248.647 310.192C248.587 310.162 249.277 309.092 248.247 308.982C248.467 310.522 247.977 310.252 246.627 310.192L247.437 309.392C245.807 308.832 246.047 310.462 244.607 310.192C244.427 309.532 245.307 309.932 245.427 309.592C245.587 309.142 245.577 308.342 244.817 308.572C244.707 308.602 243.967 309.932 242.997 309.792C242.677 307.722 242.587 305.512 242.887 303.422C242.997 302.622 242.967 302.922 242.187 302.902V308.982C240.907 309.102 241.557 308.862 241.517 308.212C241.437 307.002 241.517 305.842 241.677 304.632C241.807 303.722 241.087 303.962 240.977 304.112V310.192C239.187 309.222 241.227 306.352 239.957 304.922C239.557 304.902 240.147 310.962 238.947 309.372C238.947 307.782 239.017 306.202 239.247 304.632C239.357 303.832 239.337 304.132 238.547 304.112V310.192C237.767 310.052 237.997 309.602 237.937 309.112C237.737 307.372 238.277 305.362 238.157 303.922C238.087 303.142 238.197 303.262 237.327 303.312V309.392C237.327 309.482 235.867 309.372 236.447 310.562C235.617 310.102 235.027 311.992 234.497 311.422C233.707 310.562 235.557 309.922 235.667 309.552L235.717 294.812C236.287 294.692 236.267 295.592 236.287 295.972C236.337 297.582 235.907 299.422 236.117 301.092C236.207 301.832 235.977 301.742 236.927 301.692V291.962H237.337V298.852C238.287 298.902 238.057 298.992 238.147 298.252C238.467 295.722 237.757 292.902 238.147 290.342L236.937 291.552V280.612C235.357 281.092 237.177 283.512 235.717 283.852V276.962C236.727 277.172 236.007 280.081 236.127 280.201C237.977 280.622 235.887 277.432 237.747 277.772L237.347 289.922C237.847 290.582 238.077 289.922 238.157 289.322C238.537 286.302 237.647 282.592 238.157 279.572C238.347 278.442 239.807 278.872 239.377 277.362L238.167 278.572C237.937 275.272 238.567 271.512 237.947 268.292C237.867 267.872 238.187 267.372 237.357 267.222C237.317 269.982 237.957 273.232 237.657 275.942C237.607 276.372 237.587 277.422 236.947 277.362V268.652C236.947 267.922 237.187 266.402 236.137 266.832C235.897 268.802 236.407 270.942 236.317 272.842C236.297 273.282 236.397 274.592 235.727 274.532V267.642L234.907 268.242L235.157 279.962L234.507 283.042V269.262C233.167 270.532 234.067 273.542 233.857 275.392C233.807 275.822 233.907 276.662 233.297 276.562V267.642L234.507 268.852L234.097 264.392C235.917 264.352 236.387 263.932 236.127 266.012C236.887 266.142 236.317 265.242 236.597 264.882C236.937 264.452 239.327 263.902 238.557 265.602C239.347 265.732 238.767 264.652 238.967 264.382C239.197 264.072 245.497 264.902 246.597 264.482L246.867 265.202L247.877 264.382L248.077 265.602C248.747 265.342 248.267 264.502 248.347 264.442C249.707 263.392 254.837 264.312 256.607 264.182C259.807 263.952 263.297 262.772 266.757 263.132C267.737 263.232 267.007 264.062 267.737 263.972L267.967 262.732C272.837 263.952 293.297 258.292 296.127 259.712C298.487 260.902 297.607 269.402 297.737 271.892C297.897 275.142 298.447 278.772 298.427 282.002C298.387 287.112 297.247 292.662 297.817 297.752C297.867 298.202 297.927 299.652 298.557 299.632C299.147 298.442 298.797 297.122 298.967 295.992C299.087 295.642 299.217 295.642 299.377 295.992L300.187 296.402C301.767 297.492 302.517 299.762 302.157 301.902C303.267 300.042 304.587 299.902 306.107 301.482C307.297 301.082 308.607 300.892 310.037 300.912C309.997 299.692 311.387 299.392 311.867 300.502C312.507 299.552 312.927 299.612 314.047 299.812C315.507 298.522 316.907 298.282 318.237 299.072C318.297 297.402 318.907 296.782 320.047 297.222C319.917 294.342 321.867 295.652 323.287 296.802C323.637 296.922 323.637 297.052 323.287 297.212C324.027 297.212 324.567 297.352 324.907 297.622C325.877 298.012 325.687 298.262 324.907 298.842C317.467 302.392 311.787 304.282 303.577 305.682C302.267 305.902 300.437 305.562 299.647 305.722C299.327 305.782 299.387 306.512 299.117 306.562C298.137 306.752 297.617 305.942 296.907 305.932C292.537 305.872 282.647 308.292 277.487 308.982C275.967 307.992 275.707 307.852 276.707 308.592L276.267 308.982C275.557 309.072 274.757 309.282 273.837 309.392C271.797 309.142 269.617 309.222 267.757 310.201C267.627 310.211 267.487 310.192 267.347 310.201L266.497 309.962C264.987 310.432 261.437 310.192 263.997 308.701C264.067 308.661 265.127 308.462 263.267 308.912C261.827 309.262 261.237 309.782 262.897 310.612C262.067 311.422 260.407 310.912 259.247 311.022C258.774 310.768 258.774 310.768 259.247 311.022C258.347 311.102 257.137 311.322 256.007 311.432L255.947 311.412H255.937Z" fill="#B9B2AD"/>
<path d="M259.247 311.022C260.407 310.912 262.067 311.422 262.897 310.612C261.237 309.782 261.827 309.262 263.267 308.912C265.127 308.462 264.067 308.661 263.997 308.701C261.437 310.191 264.987 310.432 266.497 309.962L267.347 310.201C267.487 310.191 267.627 310.211 267.757 310.201C269.617 309.221 271.797 309.142 273.837 309.392C274.757 309.282 275.557 309.072 276.267 308.982L276.707 308.592C275.707 307.852 275.967 307.992 277.487 308.982C282.647 308.292 292.537 305.872 296.907 305.932C297.617 305.942 298.137 306.752 299.117 306.562C299.387 306.512 299.327 305.782 299.647 305.722C300.437 305.562 302.267 305.902 303.577 305.682C311.787 304.282 317.467 302.392 324.907 298.842C325.687 298.262 325.877 298.012 324.907 297.622C324.567 297.352 324.027 297.212 323.287 297.212C323.637 297.052 323.637 296.922 323.287 296.802C321.867 295.652 319.917 294.342 320.047 297.222C318.907 296.782 318.297 297.402 318.237 299.072C316.907 298.282 315.507 298.522 314.047 299.812C312.927 299.612 312.507 299.552 311.867 300.502C311.387 299.392 309.997 299.692 310.037 300.912C308.607 300.892 307.297 301.082 306.107 301.482C304.587 299.902 303.267 300.042 302.157 301.902C302.517 299.762 301.767 297.492 300.187 296.402L299.377 295.992C299.217 295.642 299.087 295.642 298.967 295.992C298.797 297.122 299.147 298.442 298.557 299.632C297.927 299.652 297.867 298.202 297.817 297.752C297.247 292.662 298.387 287.112 298.427 282.002C298.447 278.772 297.897 275.142 297.737 271.892C297.607 269.402 298.487 260.902 296.127 259.712C293.297 258.292 272.837 263.952 267.967 262.732L267.737 263.972C267.007 264.062 267.737 263.232 266.757 263.132C263.297 262.772 259.807 263.952 256.607 264.182C254.837 264.312 249.707 263.392 248.347 264.442C248.267 264.502 248.747 265.342 248.077 265.602L247.877 264.382L246.867 265.202L246.597 264.482C245.497 264.902 239.197 264.072 238.967 264.382C238.767 264.652 239.347 265.732 238.557 265.602C239.327 263.902 236.937 264.452 236.597 264.882C236.317 265.242 236.887 266.142 236.127 266.012C236.387 263.932 235.917 264.352 234.097 264.392L234.507 268.852L233.297 267.642V276.562C233.907 276.662 233.807 275.822 233.857 275.392C234.067 273.542 233.167 270.532 234.507 269.262V283.042L235.157 279.962L234.907 268.242L235.727 267.642V274.532C236.397 274.592 236.297 273.282 236.317 272.842C236.407 270.942 235.897 268.802 236.137 266.832C237.187 266.402 236.947 267.922 236.947 268.652V277.362C237.587 277.422 237.607 276.372 237.657 275.942C237.957 273.232 237.317 269.982 237.357 267.222C238.187 267.372 237.867 267.872 237.947 268.292C238.567 271.512 237.937 275.272 238.167 278.572L239.377 277.362C239.807 278.872 238.347 278.442 238.157 279.572C237.647 282.592 238.537 286.302 238.157 289.322C238.077 289.922 237.847 290.582 237.347 289.922L237.747 277.772C235.887 277.432 237.977 280.621 236.127 280.201C236.007 280.081 236.727 277.172 235.717 276.962V283.852C237.177 283.512 235.357 281.092 236.937 280.612V291.552L238.147 290.342C237.757 292.902 238.467 295.722 238.147 298.252C238.057 298.992 238.287 298.902 237.337 298.852V291.962H236.927V301.692C235.977 301.742 236.207 301.832 236.117 301.092C235.907 299.422 236.337 297.582 236.287 295.972C236.267 295.592 236.287 294.692 235.717 294.812L235.667 309.552C235.557 309.922 233.707 310.562 234.497 311.422C235.027 311.992 235.617 310.102 236.447 310.562C235.867 309.372 237.327 309.482 237.327 309.392V303.312C238.197 303.262 238.087 303.142 238.157 303.922C238.277 305.362 237.737 307.372 237.937 309.112C237.997 309.602 237.767 310.052 238.547 310.192V304.112C239.337 304.132 239.357 303.832 239.247 304.632C239.017 306.202 238.947 307.782 238.947 309.372C240.147 310.962 239.557 304.902 239.957 304.922C241.227 306.352 239.187 309.222 240.977 310.192V304.112C241.087 303.962 241.807 303.722 241.677 304.632C241.517 305.842 241.437 307.002 241.517 308.212C241.557 308.862 240.907 309.102 242.187 308.982V302.902C242.967 302.922 242.997 302.622 242.887 303.422C242.587 305.512 242.677 307.722 242.997 309.792C243.967 309.932 244.707 308.602 244.817 308.572C245.577 308.342 245.587 309.142 245.427 309.592C245.307 309.932 244.427 309.532 244.607 310.192C246.047 310.462 245.807 308.832 247.437 309.392L246.627 310.192C247.977 310.252 248.467 310.522 248.247 308.982C249.277 309.092 248.587 310.162 248.647 310.192C249.407 310.562 251.667 309.512 252.697 309.782L250.267 308.982L251.687 307.762L251.887 308.782L252.687 308.972L253.507 306.951V309.792L255.937 308.582C255.477 309.532 255.727 310.432 255.937 311.412H255.947L256.007 311.432C257.137 311.322 258.347 311.102 259.247 311.022ZM259.247 311.022C258.774 310.768 258.774 310.768 259.247 311.022Z" stroke="white" stroke-miterlimit="10"/>
<path d="M368.267 232.162C368.847 239.352 368.727 246.452 367.917 253.442C366.617 259.612 364.497 262.581 358.967 265.271C357.427 266.281 356.887 267.941 357.337 270.251L356.517 270.672C356.437 271.742 355.747 271.731 355.067 271.011C353.807 271.741 352.777 271.801 351.977 271.201L343.987 274.612C343.527 274.542 343.097 274.352 342.687 274.042L339.127 275.701L338.267 275.162C334.457 275.892 336.057 272.092 338.677 273.932C338.927 273.782 338.927 273.651 338.677 273.521C338.607 273.641 338.527 273.741 338.437 273.751C338.107 273.811 335.867 272.752 335.727 272.412C335.447 271.722 337.487 269.001 338.597 268.711L338.407 268.382C337.047 269.102 336.207 268.922 335.867 267.832C332.487 269.252 334.367 263.452 335.627 262.442C337.817 260.662 342.097 262.061 338.247 264.001C337.777 264.961 345.547 261.602 345.987 261.362C345.557 259.632 349.117 255.191 350.767 257.471C351.917 256.441 352.977 256.272 353.947 256.942C353.447 254.282 352.957 251.372 353.157 248.402C351.967 246.932 352.057 246.162 353.427 246.062C353.587 245.222 353.947 244.531 354.497 244.011C355.637 241.761 356.897 239.982 358.557 238.082C360.007 236.432 364.217 233.142 364.957 231.442C365.347 230.552 365.017 230.222 364.217 230.902C364.487 230.542 366.247 226.512 366.247 226.192V219.021C366.547 219.721 366.967 219.822 367.167 220.342C368.137 222.872 368.227 229.152 368.267 232.132V232.152V232.162Z" fill="#A8A099" stroke="white" stroke-miterlimit="10"/>
<path d="M370.237 267.632C370.257 268.032 370.257 268.452 370.237 268.852L369.827 271.281C368.947 274.571 367.047 277.501 364.557 279.791L360.767 281.872C358.847 282.212 357.137 282.732 355.647 283.432C355.537 283.682 355.077 284.172 354.837 284.652C352.997 286.372 351.297 284.141 353.637 282.461L353.327 281.971C351.737 282.761 351.537 281.121 351.837 279.761C352.117 277.991 348.207 278.261 348.747 280.221C347.647 280.291 347.087 281.211 347.067 283.001C348.987 281.811 350.297 281.072 351.797 283.442C353.107 285.512 349.317 287.541 347.947 286.271C347.667 286.005 347.667 286.005 347.947 286.271C347.777 287.481 346.777 288.422 344.927 289.102L337.847 291.372C337.557 292.972 335.247 293.871 334.177 292.751C333.397 292.621 333.127 290.532 333.087 289.682C333.457 287.652 333.537 285.452 332.957 283.422C331.947 282.722 332.147 282.141 333.367 282.201C334.047 281.051 334.417 279.831 334.477 278.521L334.987 278.152C335.307 276.972 335.777 275.991 336.397 275.221C337.607 276.031 338.217 276.201 338.227 275.721C340.027 275.071 351.757 269.162 352.417 269.642C352.457 269.902 352.207 270.091 352.017 270.241C351.167 270.911 345.987 272.811 344.397 273.581C343.847 273.851 343.277 273.321 343.507 274.491L353.027 270.432L352.427 271.652L355.867 270.432L355.467 271.241H356.487L357.257 272.531L356.987 280.481C362.277 279.521 366.657 274.471 368.087 269.451C367.987 267.161 369.217 264.251 370.267 267.591L370.237 267.632Z" fill="#8B827A"/>
<path d="M347.947 286.271C349.317 287.541 353.107 285.512 351.797 283.442C350.297 281.072 348.987 281.811 347.067 283.001C347.087 281.211 347.647 280.291 348.747 280.221C348.207 278.261 352.117 277.991 351.837 279.761C351.537 281.121 351.737 282.761 353.327 281.971L353.637 282.461C351.297 284.141 352.997 286.372 354.837 284.652C355.077 284.172 355.537 283.682 355.647 283.432C357.137 282.732 358.847 282.212 360.767 281.872L364.557 279.791C367.047 277.501 368.947 274.571 369.827 271.281L370.237 268.852C370.257 268.452 370.257 268.032 370.237 267.632L370.267 267.591C369.217 264.251 367.987 267.161 368.087 269.451C366.657 274.471 362.277 279.521 356.987 280.481L357.257 272.531L356.487 271.241H355.467L355.867 270.432L352.427 271.652L353.027 270.432L343.507 274.491C343.277 273.321 343.847 273.851 344.397 273.581C345.987 272.811 351.167 270.911 352.017 270.241C352.207 270.091 352.457 269.902 352.417 269.642C351.757 269.162 340.027 275.071 338.227 275.721C338.217 276.201 337.607 276.031 336.397 275.221C335.777 275.991 335.307 276.972 334.987 278.152L334.477 278.521C334.417 279.831 334.047 281.051 333.367 282.201C332.147 282.141 331.947 282.722 332.957 283.422C333.537 285.452 333.457 287.652 333.087 289.682C333.127 290.532 333.397 292.621 334.177 292.751C335.247 293.871 337.557 292.972 337.847 291.372L344.927 289.102C346.777 288.422 347.777 287.481 347.947 286.271ZM347.947 286.271C347.667 286.005 347.667 286.005 347.947 286.271Z" stroke="white" stroke-miterlimit="10"/>
<path d="M139.617 238.862C140.137 241.682 142.037 243.712 144.077 245.552C142.217 246.452 142.547 243.552 140.837 244.132C141.927 246.372 140.137 248.301 140.567 250.751C140.667 251.301 141.447 251.521 141.237 252.241L140.437 252.432L141.237 253.862L140.437 254.052L142.057 256.082L140.837 255.481C140.297 256.201 143.757 258.571 144.077 259.531L141.247 257.511C139.827 259.281 141.317 258.472 141.637 260.342L140.427 260.142L144.477 264.201C143.497 264.921 141.197 261.182 140.837 261.562L144.077 265.612C143.497 266.132 141.197 263.161 140.627 262.781C140.327 262.721 140.347 263.202 140.427 263.382C140.867 264.372 143.737 266.302 144.477 267.442C143.567 268.192 141.587 264.841 141.237 265.211L144.067 268.852L141.237 267.432L144.067 270.471L141.427 268.451C140.977 269.761 143.527 270.772 144.067 272.092L141.427 270.072C141.127 270.012 141.147 270.492 141.227 270.672C141.807 271.972 145.377 273.982 146.487 275.142C144.577 275.192 142.777 272.891 141.417 271.701C141.317 273.751 144.547 274.352 145.267 276.152L140.807 273.521L144.857 277.172C144.767 277.672 142.377 276.332 143.637 277.582C146.027 279.942 150.017 280.801 152.157 283.451C150.307 282.701 148.197 281.462 146.517 280.382C145.437 279.692 143.387 277.722 142.627 277.382C142.447 277.302 141.967 277.282 142.027 277.582C143.297 279.422 145.817 280.272 147.307 281.632C147.827 282.112 147.977 282.341 147.107 282.241L140.417 277.392L144.877 281.642L142.857 281.031L144.067 282.451L143.257 282.652L144.067 283.862L143.257 284.062L147.707 287.711C146.497 288.281 142.977 284.182 142.437 284.672L144.057 286.692L142.227 285.481C140.927 285.421 142.707 286.251 141.217 286.491L142.227 287.501C142.567 285.491 145.047 288.552 146.077 289.332C145.427 290.082 144.677 288.261 144.047 288.721C143.907 288.821 144.427 289.241 144.337 289.451C144.297 289.551 143.837 289.502 143.767 289.612C143.627 289.812 144.617 290.522 143.447 290.342C142.357 288.642 139.487 287.831 138.367 286.501C136.697 284.511 135.967 281.251 135.547 278.761C135.417 278.001 136.007 277.142 134.727 277.372C134.937 274.292 135.937 271.231 136.287 268.201C137.427 258.401 138.177 248.612 139.587 238.872H139.617V238.862Z" fill="#C0BDBC" stroke="white" stroke-miterlimit="10"/>
<path d="M370.237 267.632L369.427 266.612C368.777 267.432 369.137 268.622 368.837 269.672C367.337 275.092 361.937 281.232 356.047 281.402C356.487 278.042 356.297 274.651 356.447 271.271C356.527 269.551 356.067 267.952 357.067 266.422C357.927 265.112 362.187 263.381 363.737 261.741C366.627 258.671 367.747 251.642 367.787 247.552C367.847 242.712 368.267 237.992 368.197 233.172L369.027 240.652C368.617 249.672 369.817 258.702 370.227 267.622L370.237 267.632Z" fill="#766E66" stroke="white" stroke-miterlimit="10"/>
<path d="M347.947 286.281C348.377 286.041 350.847 285.401 351.157 285.001C351.387 284.691 351.157 282.692 349.967 283.442C350.147 283.102 350.797 282.432 349.787 282.642C347.897 283.042 345.977 285.012 343.897 285.062L346.737 283.241L345.527 282.642L347.147 282.221L344.717 281.822L347.147 280.802L345.937 280.201L348.767 279.382H346.337C347.107 277.962 349.387 278.512 350.597 277.362L350.787 278.162C353.227 277.502 352.667 280.092 352.417 281.812L353.427 280.602L354.847 282.832L352.827 284.241L354.857 284.652C354.507 285.332 353.947 286.992 353.237 287.322C352.807 287.522 352.527 286.832 352.227 286.822C351.307 286.802 349.267 288.922 348.967 289.922C346.317 288.242 347.787 289.592 346.507 290.692C346.277 290.892 341.677 293.281 341.177 293.471C340.547 293.711 339.647 293.382 339.137 293.662C338.957 293.762 338.857 294.502 338.147 294.882C336.217 295.932 332.327 297.002 330.137 296.402C329.947 295.202 330.847 294.362 332.827 293.882C333.257 293.252 333.707 292.871 334.187 292.751C334.577 292.441 336.557 292.222 336.647 292.132C337.027 291.752 336.907 290.992 337.107 290.802C337.387 290.542 343.107 288.991 344.317 288.481C345.867 287.821 346.837 286.891 347.967 286.261L346.757 286.062C347.127 285.632 347.367 285.321 347.967 285.451V286.261L347.947 286.281Z" fill="#766E66"/>
<path d="M347.967 286.261C346.837 286.891 345.867 287.821 344.317 288.481C343.107 288.991 337.387 290.542 337.107 290.802C336.907 290.992 337.027 291.752 336.647 292.132C336.557 292.222 334.577 292.441 334.187 292.751C333.707 292.871 333.257 293.252 332.827 293.882C330.847 294.362 329.947 295.202 330.137 296.402C332.327 297.002 336.217 295.932 338.147 294.882C338.857 294.502 338.957 293.762 339.137 293.662C339.647 293.382 340.547 293.711 341.177 293.471C341.677 293.281 346.277 290.892 346.507 290.692C347.787 289.592 346.317 288.242 348.967 289.922C349.267 288.922 351.307 286.802 352.227 286.822C352.527 286.832 352.807 287.522 353.237 287.322C353.947 286.992 354.507 285.332 354.857 284.652L352.827 284.241L354.847 282.832L353.427 280.602L352.417 281.812C352.667 280.092 353.227 277.502 350.787 278.162L350.597 277.362C349.387 278.512 347.107 277.962 346.337 279.382H348.767L345.937 280.201L347.147 280.802L344.717 281.822L347.147 282.221L345.527 282.642L346.737 283.241L343.897 285.062C345.977 285.012 347.897 283.042 349.787 282.642C350.797 282.432 350.147 283.102 349.967 283.442C351.157 282.692 351.387 284.691 351.157 285.001C350.847 285.401 348.377 286.041 347.947 286.281L347.967 286.261ZM347.967 286.261L346.757 286.062C347.127 285.632 347.367 285.321 347.967 285.451V286.261Z" stroke="white" stroke-miterlimit="10"/>
<path d="M332.947 283.442L334.967 283.852C334.637 284.772 332.737 284.691 334.567 285.261C332.917 286.551 334.677 287.392 334.157 288.302H336.187C336.137 289.132 333.937 288.922 333.757 289.122C333.327 289.592 333.927 290.131 334.547 289.951C333.437 290.761 334.277 292.211 334.157 292.771C333.617 295.201 332.647 294.591 331.607 295.251C331.047 295.601 330.567 296.152 330.107 296.422C328.147 297.602 326.627 298.002 324.837 298.852C324.797 298.462 324.897 298.022 324.837 297.632L323.217 297.221V296.812C323.917 295.552 324.117 294.742 324.437 293.302C325.837 292.982 326.957 292.352 327.797 291.412C329.117 291.392 330.237 290.821 331.177 289.721C331.927 290.191 332.377 290.392 332.537 290.322C332.257 288.962 331.857 286.932 331.887 285.642C331.907 284.682 332.037 283.952 332.937 283.432H332.947V283.442Z" fill="#BCB6B1" stroke="white" stroke-miterlimit="10"/>
<path d="M262.827 310.602H260.797C261.187 310.202 260.707 309.131 260.827 309.011C261.207 308.661 263.897 308.431 263.237 306.951L264.037 308.572C264.037 307.272 265.747 308.282 265.267 306.552C265.887 306.552 266.167 309.272 266.077 309.392C265.327 310.312 265.377 308.352 264.867 308.592C265.157 309.852 263.697 308.952 263.647 309.802C264.497 309.932 265.327 309.732 266.157 309.682C266.847 309.642 267.457 308.801 267.287 310.211C265.727 310.341 264.457 310.622 262.827 310.622V310.602Z" fill="#E3E0DD" stroke="white" stroke-miterlimit="10"/>
<path d="M267.687 310.192L268.897 308.981C267.537 309.361 267.817 307.542 266.667 308.562C266.337 308.642 266.417 307.822 266.467 307.762C266.557 307.662 268.957 307.102 269.097 307.122C269.177 307.122 270.467 307.712 270.527 307.772C271.467 308.822 269.067 308.301 269.317 308.971C270.057 308.681 272.237 309.092 272.697 308.932C273.437 308.672 273.077 307.702 273.767 307.762V309.382C271.737 309.622 269.747 310.002 267.697 310.192H267.687Z" fill="#E3E0DD" stroke="white" stroke-miterlimit="10"/>
<path d="M276.207 308.971L275.797 307.761L274.177 307.362C275.527 307.682 275.347 306.652 276.197 306.142V307.961C277.367 308.881 277.547 307.312 277.937 307.082C278.497 306.742 279.437 306.781 279.767 306.481C279.837 306.421 279.337 305.382 280.247 305.332L281.467 306.552L280.247 306.951L280.657 308.162C279.617 308.342 278.137 308.001 277.417 308.971C277.027 309.021 276.587 308.921 276.197 308.971H276.207Z" fill="#E3E0DD" stroke="white" stroke-miterlimit="10"/>
<path d="M364.557 279.792C362.067 282.082 359.007 283.232 355.637 283.442C355.737 283.222 355.487 282.401 355.657 282.251C355.827 282.101 359.137 282.001 360.187 281.701C361.717 281.261 362.957 280.062 364.557 279.792Z" fill="#766E66" stroke="white" stroke-miterlimit="10"/>
<path d="M369.827 271.281C369.887 270.521 369.517 269.302 370.237 268.852C370.187 270.092 370.107 270.241 369.827 271.281Z" fill="#766E66" stroke="white" stroke-miterlimit="10"/>
<path d="M299.707 289.112C298.977 287.812 300.197 285.492 298.897 285.272C300.147 280.602 299.327 272.682 299.107 267.412C299.027 265.502 297.627 263.492 299.717 262.372L298.497 262.572L299.307 260.752C298.497 260.642 299.377 261.792 298.297 261.562C297.337 261.352 299.217 259.302 299.617 259.162C301.127 258.632 304.087 258.851 305.517 258.241C306.147 257.971 306.107 257.142 306.457 257.072C307.087 256.952 307.637 257.441 308.047 257.471C308.187 257.471 309.347 255.262 309.847 257.512H310.237C310.207 257.092 310.307 256.752 310.727 256.572C312.587 255.752 315.727 255.921 317.777 255.961C318.757 255.981 319.067 255.551 318.337 256.711L318.627 257.092C319.767 256.702 320.157 257.741 319.787 260.231C320.517 261.781 320.607 262.871 320.047 263.491C321.177 264.041 321.617 265.052 321.377 266.522C326.027 266.822 327.677 262.862 327.537 258.652C325.897 257.802 325.667 257.161 326.847 256.721C328.817 256.921 329.597 255.992 330.497 258.342C330.807 261.502 331.347 264.612 332.117 267.662C332.897 269.092 333.117 270.021 332.927 271.711L330.307 267.672C327.427 269.232 324.307 270.321 321.997 272.721C323.017 273.311 322.967 275.072 324.017 274.142L324.437 276.172L325.237 274.961C325.687 275.901 325.067 278.472 326.447 277.602L326.057 275.772C326.597 275.522 326.447 277.452 327.267 276.572C327.397 276.432 326.677 275.592 326.867 275.362C328.557 276.862 328.857 275.482 329.087 275.412C329.247 275.362 329.907 275.752 330.537 275.532C332.577 274.812 334.367 272.512 334.157 276.572C333.437 277.202 333.517 275.062 333.527 275.162C334.047 277.282 332.547 278.482 329.027 278.762C328.527 280.182 327.287 280.872 325.307 280.832C325.137 282.032 324.387 282.252 323.337 282.192C322.557 283.982 321.487 282.781 321.187 282.241L320.237 281.832C319.987 282.652 319.077 283.062 317.537 283.052C317.157 283.902 316.757 283.731 316.277 282.971C315.417 284.441 313.427 283.191 314.867 282.451C314.937 282.121 314.797 280.901 314.727 280.471C314.637 279.911 315.307 283.282 314.317 283.112C314.637 285.222 314.237 286.242 311.867 286.302C310.707 286.122 310.727 284.302 311.667 283.862C311.577 281.922 311.647 280.032 311.867 278.192C311.747 278.542 311.617 278.542 311.457 278.192C311.817 279.812 311.787 282.152 311.457 283.862C311.237 285.382 309.817 284.432 309.967 283.102C311.157 279.892 307.817 284.352 307.637 285.652C305.677 287.042 305.147 283.191 306.407 283.211C306.687 283.211 306.207 283.911 305.587 283.451C306.177 285.881 302.217 285.141 303.237 282.201L302.957 279.002C303.187 280.752 303.257 282.502 303.157 284.272C304.077 284.442 303.827 284.732 302.957 285.082C303.087 286.282 302.247 293.841 299.887 290.451L299.707 289.132V289.112Z" fill="#BCB6B1" stroke="white" stroke-miterlimit="10"/>
<path d="M299.707 289.112L300.927 290.332C301.087 290.492 301.557 289.972 301.647 289.642C302.207 287.522 301.647 283.752 302.147 281.422L302.957 285.072V278.991L303.527 282.182L303.367 284.261L304.577 283.052L304.987 284.672V281.842L305.797 282.031L306.207 283.451V280.622C306.917 280.532 306.597 281.541 306.617 282.031C306.667 283.181 306.577 284.331 306.617 285.481C307.517 285.491 306.717 283.821 307.057 283.481C307.357 283.181 308.707 284.172 308.227 281.842L307.017 283.052C306.677 281.432 307.377 281.462 308.437 280.622L308.637 282.241C309.367 282.341 308.967 280.682 309.647 280.632C309.717 280.632 310.787 281.272 310.887 281.432C311.597 282.532 309.757 284.142 311.477 283.862V278.192H311.887V286.302L312.697 280.632C313.387 280.562 313.137 282.031 313.117 282.471C313.067 283.541 312.817 284.451 312.697 285.491C314.357 285.681 313.147 282.322 313.507 281.442L314.717 282.652V280.221L315.127 283.052C315.767 283.222 315.367 282.572 315.657 282.372C316.447 281.842 316.867 282.792 316.947 280.622C317.377 280.622 317.047 282.322 317.137 282.822C317.197 283.162 317.547 283.032 317.557 283.052C317.597 282.382 317.527 281.691 317.557 281.021L318.777 280.622L319.187 282.642L319.597 280.622C320.627 281.522 321.537 280.551 321.217 282.241C321.567 283.421 320.237 285.142 319.067 285.572C319.447 287.262 317.047 287.681 317.567 286.021C317.827 285.191 318.007 283.782 317.567 283.052C317.897 284.462 318.307 287.421 316.167 286.971C316.237 289.371 314.537 291.561 312.327 289.731C311.237 291.171 311.297 291.671 312.507 291.231C313.297 292.701 314.507 293.062 316.127 292.292C317.077 293.242 317.657 293.432 317.867 292.862C320.777 292.522 323.947 290.842 325.307 288.072C326.637 287.932 327.757 287.192 328.677 285.832C331.237 284.262 332.537 285.762 332.567 290.352C332.607 291.182 333.227 292.212 332.967 293.192C331.327 293.532 332.657 291.082 331.957 290.362C331.117 290.432 330.137 291.832 330.027 291.892C328.987 292.422 326.967 291.152 328.107 294.412L327.707 293.201C327.577 293.121 324.977 293.911 324.867 294.011C324.167 294.731 325.657 294.911 325.687 295.011C326.127 296.551 325.077 295.651 324.947 295.721C324.747 295.821 324.627 296.472 323.247 296.842C322.927 296.932 321.287 297.341 321.237 297.251C321.047 296.901 321.597 295.921 320.817 296.031V298.062C320.077 297.612 319.907 297.511 319.997 298.461H319.597L319.187 297.251C319.507 302.001 317.547 299.222 316.627 299.352C316.217 299.412 313.297 300.921 313.497 301.711L313.097 300.092L312.497 301.312C311.627 301.332 310.927 301.551 311.067 300.491H310.667C311.117 301.661 309.857 301.722 309.847 301.902C309.827 302.362 310.837 301.761 310.657 302.501L309.447 301.701C308.237 301.771 307.627 302.802 307.217 301.292L307.017 302.102L305.397 302.521L305.197 301.302L304.187 302.511L303.777 300.491L303.567 302.011L301.337 303.332C301.007 302.852 301.427 299.802 301.337 299.122C301.287 298.792 300.297 299.062 300.127 296.442C300.067 295.502 300.177 294.542 300.127 293.602C299.607 293.362 299.687 295.312 298.917 294.412C298.747 294.212 299.387 289.712 299.727 289.142V289.112H299.707Z" fill="#A09992" stroke="white" stroke-miterlimit="10"/>
<path d="M354.427 244.942C353.917 245.942 353.707 247.171 352.807 247.981C355.247 248.641 352.627 252.211 354.427 252.241L353.617 253.251C355.007 253.481 353.897 255.152 354.037 256.042C354.087 256.332 354.677 256.231 354.737 256.491C354.927 257.271 354.647 258.942 353.627 259.132C353.127 256.392 351.177 259.762 349.367 259.542L349.977 258.332C348.837 257.512 347.057 261.371 345.927 261.971L352.617 258.731C353.217 259.061 352.557 259.691 352.217 259.951C350.637 261.141 340.487 265.392 338.337 265.932C338.017 266.012 337.737 266.061 337.407 266.021L337.817 265.221C337.317 264.851 335.587 266.401 335.787 265.021L339.427 263.192C335.147 263.282 335.987 263.842 334.747 266.822C334.587 267.212 333.487 267.732 333.957 268.062C337.717 267.572 340.997 265.302 344.687 264.412L336.587 268.261C336.447 269.321 337.017 268.611 337.587 268.451C338.907 268.061 340.087 267.341 341.447 267.251L338.617 269.072L340.027 268.862C340.937 270.042 338.057 270.002 337.397 271.102C338.457 271.432 339.677 270.252 340.607 269.852C341.287 269.552 341.877 269.482 341.057 270.302L336.187 272.521C336.257 273.541 337.947 272.241 338.207 272.521C338.377 272.701 337.307 273.822 338.617 274.142C338.967 274.262 338.967 274.392 338.617 274.552C337.957 274.732 337.277 274.911 336.597 274.961V275.362L338.217 275.771C338.317 277.441 337.827 276.002 337.217 275.912C335.957 275.722 336.227 277.921 334.977 278.201C334.277 278.121 334.387 277.331 334.977 276.981C335.187 273.191 334.667 272.032 333.977 268.892C333.707 267.672 333.667 266.071 332.977 265.781C333.557 264.441 332.067 258.992 332.597 258.382C332.737 258.222 336.217 257.122 336.557 256.672C336.607 256.612 336.677 255.142 336.617 255.092C336.347 254.902 335.267 255.482 335.397 254.692L351.007 246.582C351.447 248.132 351.347 246.951 352.287 246.711C352.597 246.631 353.167 247.031 353.217 246.991C353.327 246.891 353.307 245.111 354.457 244.971L354.427 244.942Z" fill="#B9B3AD" stroke="white" stroke-miterlimit="10"/>
<path d="M334.157 276.551V276.961C334.907 278.001 334.297 280.001 333.857 281.251C334.317 281.401 334.147 281.731 333.347 282.231C333.347 282.311 333.017 282.801 332.937 283.451C332.667 285.711 332.427 288.061 332.527 290.341C330.897 289.281 332.997 286.081 330.297 286.031C328.257 285.991 327.637 289.711 325.637 288.321L326.047 289.531H324.827L325.237 290.751H324.017C324.847 292.861 324.147 291.491 322.837 291.781C321.907 291.991 321.007 292.741 320.577 293.591L319.977 292.781C320.347 293.751 319.647 294.271 318.837 293.861C318.647 293.761 319.017 293.002 318.357 293.182C318.457 295.972 317.067 293.151 316.327 294.001L316.127 292.781C315.367 293.501 314.437 293.491 314.707 294.801L314.107 293.182C313.817 293.662 313.067 293.771 312.787 294.111C312.507 294.451 313.017 295.341 312.287 295.211C311.747 294.271 313.527 291.631 311.877 291.971V293.991L311.067 292.781L310.257 294.402L311.067 288.331V290.351L311.877 288.731L313.087 289.132V287.111L313.497 289.942C314.137 290.102 313.737 289.461 314.027 289.261C314.317 289.061 314.907 289.201 315.037 289.071C315.267 288.841 315.037 287.291 315.487 286.551C315.887 285.871 316.957 286.291 317.167 286.101C317.857 285.451 317.497 283.961 317.547 283.051C317.547 283.071 317.907 282.941 317.967 283.291C318.117 284.211 317.467 286.161 318.357 286.701C317.867 284.061 319.007 285.082 319.567 284.372C319.887 283.972 320.277 282.731 321.197 282.241C322.437 281.371 321.647 282.662 322.407 282.642C322.427 280.782 324.347 281.522 324.417 281.402C324.557 281.142 324.197 280.462 324.697 280.192C325.317 279.852 327.197 279.902 327.847 279.442C328.247 279.162 327.887 278.422 328.347 278.172C329.807 277.392 334.087 277.652 333.357 274.942C333.717 274.812 334.167 276.471 334.167 276.561L334.157 276.551Z" fill="#7D746C" stroke="white" stroke-miterlimit="10"/>
<path d="M224.727 267.231C224.007 267.141 224.347 268.142 224.317 268.642C223.967 275.892 224.127 283.081 224.317 290.331L223.507 289.731L223.907 264.801C222.297 264.371 223.817 266.722 222.497 266.422C221.987 266.302 222.477 265.281 222.687 264.991L221.887 264.791V266.412L220.677 266.011V268.031L220.267 266.011L219.657 266.412L219.057 270.872C219.057 269.872 218.807 264.221 219.057 263.981C219.477 263.581 221.297 263.931 220.677 265.201C221.807 265.431 221.467 264.791 221.487 263.981C223.587 264.901 227.077 263.892 228.927 264.382C229.257 264.472 229.227 264.921 229.197 265.201H229.587C228.907 263.831 233.467 264.651 233.617 264.831C233.947 265.211 233.947 268.061 232.427 267.241C232.917 270.991 232.897 274.971 232.857 278.791C232.817 282.841 232.617 286.891 232.427 290.961C232.407 291.461 232.737 292.462 232.017 292.372V267.652L231.457 271.251C231.197 274.671 231.867 278.711 231.607 282.041C231.567 282.511 231.487 283.862 230.797 283.862V267.851C230.797 267.741 231.587 267.451 230.797 267.041C229.767 266.491 230.347 269.992 230.367 270.692C230.397 271.502 230.387 271.331 229.577 271.301L229.177 267.251C229.067 269.841 229.337 272.852 228.917 275.392C228.847 275.842 228.997 276.671 228.367 276.571V266.442C227.647 266.352 227.987 267.351 227.957 267.851C227.867 269.651 228.047 272.512 227.717 274.172C227.627 274.632 227.787 275.462 227.147 275.362V267.251C225.977 267.601 227.697 270.501 225.937 270.091L225.537 266.451C226.047 270.041 224.407 273.791 225.537 277.201L224.737 277.392V267.231H224.727Z" fill="#B9B2AD" stroke="white" stroke-miterlimit="10"/>
<path d="M318.357 256.692C319.537 256.012 320.027 255.582 321.597 255.882L320.787 256.682C322.827 256.312 324.837 256.482 326.867 256.682C326.527 257.942 328.247 257.321 328.397 258.081C328.447 258.331 328.017 262.722 327.867 263.152C327.557 264.072 325.307 266.651 324.407 267.031C323.677 267.341 323.107 266.881 322.387 267.001C321.667 267.121 320.577 268.042 319.977 267.432L320.787 266.011L319.167 266.412L320.777 265.192C320.357 264.272 318.847 264.181 319.147 262.971C319.177 262.871 321.487 262.022 319.147 262.162V260.341C318.587 260.121 318.777 261.992 317.937 261.142C317.877 261.082 318.537 260.011 318.347 259.521L319.147 259.932V258.711C317.397 259.511 318.557 258.281 319.557 257.501C318.197 257.161 317.427 259.011 316.517 258.721C316.397 258.681 316.187 257.122 315.507 257.902C315.327 258.112 315.897 259.252 315.107 259.122V256.692L316.117 257.501L316.717 256.692C316.697 258.442 317.647 257.092 318.347 256.692H318.357Z" fill="#A59E97" stroke="white" stroke-miterlimit="10"/>
<path d="M229.597 271.692C230.937 271.552 230.177 271.932 230.257 272.442C230.887 276.482 229.747 281.361 230.157 285.511L229.607 286.692V271.692H229.597Z" fill="#B9B2AD" stroke="white" stroke-miterlimit="10"/>
<path d="M332.137 267.632C331.187 265.912 331.697 264.982 330.527 264.112V258.312C331.517 260.922 331.987 264.822 332.137 267.632Z" fill="#A59E97" stroke="white" stroke-miterlimit="10"/>
<path d="M334.977 276.961C334.957 277.361 335.017 277.782 334.977 278.182C334.897 278.902 334.867 279.792 334.777 280.402C334.657 281.212 333.417 281.202 334.977 281.622L333.357 282.231C333.527 280.761 334.147 278.171 334.167 276.961H334.977Z" fill="#BCB6B1" stroke="white" stroke-miterlimit="10"/>
<path d="M225.947 270.471C227.697 270.281 226.377 273.492 226.337 274.342C226.297 275.252 227.147 277.181 225.947 277.761V270.461V270.471Z" fill="#B9B2AD" stroke="white" stroke-miterlimit="10"/>
<path d="M335.777 253.862C335.777 254.452 333.467 255.182 333.347 255.072C332.417 254.262 335.467 253.782 335.777 253.862Z" fill="#B9B3AD" stroke="white" stroke-miterlimit="10"/>
<path d="M299.307 296.001H298.897C298.977 295.461 299.067 294.881 299.707 294.781V295.792L299.307 296.001Z" fill="#A09992" stroke="white" stroke-miterlimit="10"/>
<path d="M243.377 275.332C245.137 275.122 243.507 278.352 244.197 279.382C245.387 278.942 243.597 275.752 245.407 276.142C245.017 278.882 245.617 282.502 245.287 285.102C245.217 285.642 245.337 286.142 244.597 286.272V279.792C243.317 280.292 244.247 282.152 244.007 283.152L243.377 287.092V275.342V275.332Z" fill="#E3E0DD" stroke="white" stroke-miterlimit="10"/>
<path d="M241.347 289.521C242.857 289.851 241.917 287.552 242.157 286.692C242.777 286.692 242.727 288.452 242.737 288.922C242.757 289.862 242.387 290.951 242.557 291.961L242.147 289.942L240.937 291.152C241.077 286.372 240.767 281.521 240.917 276.751C240.947 275.811 240.777 273.682 241.737 273.322L241.337 289.531H241.347V289.521Z" fill="#E3E0DD" stroke="white" stroke-miterlimit="10"/>
<path d="M249.457 279.791C249.557 279.661 250.287 279.392 250.157 280.312C249.817 282.702 249.847 286.001 249.837 288.481C249.837 293.771 250.077 298.992 249.857 304.312C249.837 304.812 250.167 305.821 249.447 305.721V279.781L249.457 279.791Z" fill="#E3E0DD" stroke="white" stroke-miterlimit="10"/>
<path d="M239.727 283.442C240.807 283.282 240.547 283.631 240.557 284.461C240.627 288.841 240.137 293.262 240.377 297.642L239.727 298.841V283.442Z" fill="#E3E0DD" stroke="white" stroke-miterlimit="10"/>
<path d="M238.507 286.682C239.887 286.572 239.057 286.862 239.097 287.362C239.347 290.582 239.707 296.032 239.327 299.052C239.237 299.792 239.467 299.702 238.517 299.652V286.682H238.507Z" fill="#E3E0DD" stroke="white" stroke-miterlimit="10"/>
<path d="M251.887 281.412C252.807 281.612 252.407 282.062 252.437 282.562C252.847 288.762 251.887 295.372 252.287 301.682L251.487 301.491C251.857 300.841 251.887 299.782 251.887 299.052V281.422V281.412Z" fill="#E3E0DD" stroke="white" stroke-miterlimit="10"/>
<path d="M240.537 270.882V280.811C240.537 281.461 240.577 282.851 239.727 283.041C240.107 279.431 239.417 274.981 239.747 271.491C239.817 270.741 239.557 270.832 240.537 270.882Z" fill="#E3E0DD" stroke="white" stroke-miterlimit="10"/>
<path d="M254.727 293.572C253.527 293.142 255.317 289.942 253.517 290.332C253.487 291.342 253.557 292.362 253.517 293.372C253.497 293.872 253.827 294.871 253.107 294.781V284.652C253.727 284.582 253.657 286.192 253.677 286.622C253.707 287.592 252.807 290.242 254.327 289.912V283.432H254.737V293.562L254.727 293.572Z" fill="#E3E0DD" stroke="white" stroke-miterlimit="10"/>
<path d="M240.937 293.172C241.737 293.312 241.467 293.781 241.537 294.251C241.747 295.721 241.667 298.062 241.617 299.592C241.587 300.712 241.917 303.111 240.927 303.701V293.162L240.937 293.172Z" fill="#E3E0DD" stroke="white" stroke-miterlimit="10"/>
<path d="M245.807 287.492C247.417 287.182 246.327 289.392 246.367 290.192C246.437 291.852 247.407 294.842 245.807 296.002V287.492Z" fill="#E3E0DD" stroke="white" stroke-miterlimit="10"/>
<path d="M244.587 295.192V286.682C245.227 286.632 245.247 287.942 245.277 288.362C245.367 289.522 245.427 292.842 245.317 293.902C245.257 294.492 245.357 295.041 244.577 295.201H244.587V295.192Z" fill="#E3E0DD" stroke="white" stroke-miterlimit="10"/>
<path d="M243.377 296.001V287.491C244.117 287.411 243.737 288.402 243.777 288.912C243.907 290.632 244.197 293.141 244.037 294.791C243.987 295.331 244.207 295.831 243.377 296.001Z" fill="#E3E0DD" stroke="white" stroke-miterlimit="10"/>
<path d="M248.237 292.362C248.327 292.242 249.067 291.962 248.937 292.882C248.567 295.482 248.887 297.652 248.807 300.112C248.807 300.502 248.807 301.401 248.237 301.281V292.362Z" fill="#E3E0DD" stroke="white" stroke-miterlimit="10"/>
<path d="M247.017 295.192C248.507 294.882 247.347 296.432 247.387 297.422C247.437 298.642 247.647 300.241 247.777 301.511C247.857 302.331 247.807 302.082 247.027 302.082V295.192H247.017Z" fill="#E3E0DD" stroke="white" stroke-miterlimit="10"/>
<path d="M240.537 299.251C240.097 300.641 240.597 302.092 240.377 303.432C240.317 303.832 240.307 304.621 239.737 304.511C239.797 303.101 239.637 301.661 239.737 300.251C239.787 299.441 239.417 299.081 240.547 299.251H240.537Z" fill="#E3E0DD" stroke="white" stroke-miterlimit="10"/>
<path d="M245.397 302.902C245.527 303.072 245.287 306.591 245.247 307.091C245.217 307.461 245.147 308.272 244.597 308.172C244.727 306.682 244.407 304.951 244.597 303.501C244.677 302.911 244.907 302.252 245.407 302.902H245.397Z" fill="#E3E0DD" stroke="white" stroke-miterlimit="10"/>
<path d="M246.617 296.412C245.967 297.862 247.227 300.231 245.807 301.271C245.857 300.001 245.717 298.692 245.807 297.422C245.857 296.612 245.487 296.252 246.617 296.422V296.412Z" fill="#E3E0DD" stroke="white" stroke-miterlimit="10"/>
<path d="M247.827 308.971C245.967 309.011 245.537 309.432 245.807 307.352L247.017 308.562V304.511L247.827 308.961V308.971Z" fill="#E3E0DD" stroke="white" stroke-miterlimit="10"/>
<path d="M251.477 284.662C251.147 286.082 250.887 287.922 251.477 289.332L250.677 289.521C250.727 288.251 250.587 286.942 250.677 285.662C250.727 284.852 250.357 284.492 251.487 284.662H251.477Z" fill="#E3E0DD" stroke="white" stroke-miterlimit="10"/>
<path d="M242.557 286.281C241.847 286.371 242.177 285.362 242.157 284.872C242.107 283.722 242.187 282.562 242.157 281.422C243.597 282.342 242.327 284.911 242.557 286.281Z" fill="#E3E0DD" stroke="white" stroke-miterlimit="10"/>
<path d="M238.107 302.491C237.187 303.701 236.827 299.621 237.907 299.251L238.107 302.491Z" fill="#E3E0DD" stroke="white" stroke-miterlimit="10"/>
<path d="M247.027 293.172C247.057 292.032 246.977 290.871 247.027 289.721C247.047 289.231 246.717 288.212 247.427 288.312C246.897 289.822 248.617 292.332 247.027 293.172Z" fill="#E3E0DD" stroke="white" stroke-miterlimit="10"/>
<path d="M247.827 281.821C247.397 282.951 247.647 284.052 247.607 285.192C247.587 285.732 248.357 285.982 247.017 285.872C247.367 284.992 246.167 281.631 247.827 281.821Z" fill="#E3E0DD" stroke="white" stroke-miterlimit="10"/>
<path d="M241.747 270.872C240.617 271.042 240.987 270.682 240.937 269.872C240.867 268.732 240.987 267.562 240.937 266.422L241.747 270.872Z" fill="#E3E0DD" stroke="white" stroke-miterlimit="10"/>
<path d="M251.487 305.332L252.287 302.092C252.017 303.052 252.637 304.862 251.487 305.332Z" fill="#E3E0DD" stroke="white" stroke-miterlimit="10"/>
<path d="M246.617 284.251L245.817 287.081C246.037 286.221 245.117 283.911 246.617 284.251Z" fill="#E3E0DD" stroke="white" stroke-miterlimit="10"/>
<path d="M242.967 299.251C243.067 299.391 242.887 302.511 242.167 302.491C242.067 302.241 241.967 297.951 242.967 299.251Z" fill="#E3E0DD" stroke="white" stroke-miterlimit="10"/>
<path d="M245.397 295.602C244.857 296.402 246.087 298.792 244.587 298.432C244.837 297.682 243.857 295.292 245.397 295.602Z" fill="#E3E0DD" stroke="white" stroke-miterlimit="10"/>
<path d="M251.067 294.791C250.357 294.881 250.687 293.872 250.667 293.382C250.627 292.372 250.697 291.351 250.667 290.341C251.287 290.281 251.207 291.871 251.227 292.311C251.267 293.131 250.997 293.961 251.057 294.791H251.067Z" fill="#E3E0DD" stroke="white" stroke-miterlimit="10"/>
<path d="M248.637 286.682L248.237 282.632C249.557 283.252 248.197 285.492 248.637 286.682Z" fill="#E3E0DD" stroke="white" stroke-miterlimit="10"/>
<path d="M246.617 303.712C246.037 304.612 246.887 306.532 245.807 306.952C246.087 306.172 245.027 303.422 246.617 303.712Z" fill="#E3E0DD" stroke="white" stroke-miterlimit="10"/>
<path d="M236.887 306.141C236.347 306.941 237.597 308.911 236.077 308.571C236.267 307.731 235.437 305.811 236.887 306.141Z" fill="#E3E0DD" stroke="white" stroke-miterlimit="10"/>
<path d="M242.967 278.172C242.457 279.082 243.377 280.581 242.157 281.001L242.967 278.172Z" fill="#E3E0DD" stroke="white" stroke-miterlimit="10"/>
<path d="M242.967 292.362C242.457 293.272 243.377 294.772 242.157 295.192L242.967 292.362Z" fill="#E3E0DD" stroke="white" stroke-miterlimit="10"/>
<path d="M258.377 308.572L258.777 305.332C258.487 306.412 259.807 308.042 258.377 308.572Z" fill="#E3E0DD" stroke="white" stroke-miterlimit="10"/>
<path d="M260.397 308.172L258.377 309.782C258.247 309.012 259.167 309.612 259.537 309.312C259.857 309.062 259.077 307.812 260.397 308.162V308.172Z" fill="#E3E0DD" stroke="white" stroke-miterlimit="10"/>
<path d="M251.067 302.491C249.757 302.011 251.027 300.281 250.667 299.251L251.067 302.491Z" fill="#E3E0DD" stroke="white" stroke-miterlimit="10"/>
<path d="M253.497 298.432C252.577 298.072 253.327 295.992 253.097 295.192C254.017 295.552 253.267 297.632 253.497 298.432Z" fill="#E3E0DD" stroke="white" stroke-miterlimit="10"/>
<path d="M239.317 300.062H238.507V301.682H239.317V300.062Z" fill="#E3E0DD" stroke="white" stroke-miterlimit="10"/>
<path d="M248.637 304.922C247.717 304.562 248.467 302.482 248.237 301.682C249.157 302.042 248.407 304.122 248.637 304.922Z" fill="#E3E0DD" stroke="white" stroke-miterlimit="10"/>
<path d="M236.887 302.092H236.077V303.711H236.887V302.092Z" fill="#E3E0DD" stroke="white" stroke-miterlimit="10"/>
<path d="M236.887 304.112H236.077V305.731H236.887V304.112Z" fill="#E3E0DD" stroke="white" stroke-miterlimit="10"/>
<path d="M248.637 289.122H248.237V291.951H248.637V289.122Z" fill="#E3E0DD" stroke="white" stroke-miterlimit="10"/>
<path d="M242.967 295.602C243.067 296.362 242.967 297.001 242.167 297.221V295.602H242.967Z" fill="#E3E0DD" stroke="white" stroke-miterlimit="10"/>
<path d="M253.507 300.461H252.697C252.597 299.711 252.677 299.282 253.307 298.842L253.507 300.461Z" fill="#E3E0DD" stroke="white" stroke-miterlimit="10"/>
<path d="M245.397 300.872C245.497 301.632 245.397 302.271 244.597 302.491V300.872H245.397Z" fill="#E3E0DD" stroke="white" stroke-miterlimit="10"/>
<path d="M253.507 302.491H252.697C252.597 301.741 252.677 301.312 253.307 300.872L253.507 302.491Z" fill="#E3E0DD" stroke="white" stroke-miterlimit="10"/>
<path d="M239.317 302.092C239.417 302.852 239.317 303.491 238.517 303.711V302.092H239.317Z" fill="#E3E0DD" stroke="white" stroke-miterlimit="10"/>
<path d="M251.077 304.511H250.267C250.167 303.761 250.247 303.332 250.877 302.892L251.077 304.511Z" fill="#E3E0DD" stroke="white" stroke-miterlimit="10"/>
<path d="M253.507 304.922C253.607 305.682 253.507 306.322 252.707 306.542V304.922H253.507Z" fill="#E3E0DD" stroke="white" stroke-miterlimit="10"/>
<path d="M248.637 305.332H248.237V308.162H248.637V305.332Z" fill="#E3E0DD" stroke="white" stroke-miterlimit="10"/>
<path d="M259.177 311.001C258.137 310.961 257.287 311.402 257.557 310.192H259.167V311.001H259.177Z" fill="#E3E0DD" stroke="white" stroke-miterlimit="10"/>
<path d="M254.727 298.031H253.917V299.241H254.727V298.031Z" fill="#E3E0DD" stroke="white" stroke-miterlimit="10"/>
<path d="M245.397 298.842C245.617 299.062 244.817 300.951 244.597 300.461V298.842H245.397Z" fill="#E3E0DD" stroke="white" stroke-miterlimit="10"/>
<path d="M300.927 303.302L299.717 303.102L300.927 302.082V303.302Z" fill="#A09992" stroke="white" stroke-miterlimit="10"/>
<path d="M273.767 307.352L272.557 307.152L273.767 306.142V307.352Z" fill="#E3E0DD" stroke="white" stroke-miterlimit="10"/>
<path d="M257.967 309.382V309.781L256.347 310.192V309.382H257.967Z" fill="#E3E0DD" stroke="white" stroke-miterlimit="10"/>
<path d="M263.637 306.142H262.827C262.697 305.542 263.007 305.302 263.437 304.932L263.637 306.142Z" fill="#E3E0DD" stroke="white" stroke-miterlimit="10"/>
<path d="M253.507 303.302C253.627 303.862 253.287 304.381 252.707 304.511V303.302H253.507Z" fill="#E3E0DD" stroke="white" stroke-miterlimit="10"/>
<path d="M246.207 303.302H245.807V301.682C246.897 302.042 246.397 302.442 246.207 303.302Z" fill="#E3E0DD" stroke="white" stroke-miterlimit="10"/>
<path d="M239.317 274.521H238.507C238.377 273.921 238.687 273.682 239.117 273.312L239.317 274.521Z" fill="#E3E0DD" stroke="white" stroke-miterlimit="10"/>
<path d="M299.707 300.872H298.897C298.767 300.272 299.077 300.032 299.507 299.662L299.707 300.872Z" fill="#A09992" stroke="white" stroke-miterlimit="10"/>
<path d="M242.967 297.632C243.087 298.192 242.747 298.712 242.167 298.842V297.632H242.967Z" fill="#E3E0DD" stroke="white" stroke-miterlimit="10"/>
<path d="M324.837 297.632C324.267 297.632 323.377 297.841 323.217 297.221L324.837 296.822C324.867 297.082 324.807 297.372 324.837 297.632Z" fill="#A09992" stroke="white" stroke-miterlimit="10"/>
<path d="M239.317 282.632C239.437 283.192 239.097 283.712 238.517 283.842V282.632H239.317Z" fill="#E3E0DD" stroke="white" stroke-miterlimit="10"/>
<path d="M246.617 283.842H245.807V282.632C246.397 282.772 246.737 283.282 246.607 283.842H246.617Z" fill="#E3E0DD" stroke="white" stroke-miterlimit="10"/>
<path d="M239.317 285.461H238.507C238.377 284.861 238.687 284.621 239.117 284.251L239.317 285.461Z" fill="#E3E0DD" stroke="white" stroke-miterlimit="10"/>
<path d="M239.317 272.902H238.507C238.377 272.302 238.687 272.062 239.117 271.692L239.317 272.902Z" fill="#E3E0DD" stroke="white" stroke-miterlimit="10"/>
<path d="M269.307 305.332C269.427 305.892 269.087 306.412 268.507 306.542V305.332H269.307Z" fill="#E3E0DD" stroke="white" stroke-miterlimit="10"/>
<path d="M356.047 261.961C355.437 261.511 354.007 264.311 354.027 262.571C354.027 262.481 354.617 262.151 354.667 261.771C354.747 261.101 353.747 260.231 354.207 259.531C355.277 257.901 355.137 259.802 355.087 260.652C355.047 261.252 354.407 261.701 355.427 261.561C356.367 260.881 355.367 260.152 355.827 259.152C356.107 258.542 359.297 255.761 359.997 255.581C362.557 254.921 362.927 257.722 362.427 259.652C361.857 261.832 356.137 267.511 356.037 261.971H356.047V261.961Z" fill="#B9B3AD" stroke="white" stroke-miterlimit="10"/>
<path d="M345.917 265.211C345.837 265.731 344.497 266.202 344.037 266.372C343.457 266.582 342.977 266.972 342.267 266.832C342.957 265.802 344.737 265.261 345.907 265.221L345.917 265.211Z" fill="#B9B3AD" stroke="white" stroke-miterlimit="10"/>
<path d="M342.267 270.882C342.037 271.572 340.497 271.992 339.837 272.092C340.187 271.182 341.347 270.842 342.267 270.882Z" fill="#B9B3AD" stroke="white" stroke-miterlimit="10"/>
<path d="M343.477 268.852V269.662H341.857C342.077 268.852 342.717 268.752 343.477 268.862V268.852Z" fill="#B9B3AD" stroke="white" stroke-miterlimit="10"/>
<path d="M338.617 274.122L340.237 273.721C340.007 274.941 338.757 274.491 338.617 274.531V274.122Z" fill="#8B827A" stroke="white" stroke-miterlimit="10"/>
<path d="M350.777 261.562C351.197 261.762 349.687 262.532 349.157 262.362C349.357 261.582 350.057 261.452 350.777 261.562Z" fill="#B9B3AD" stroke="white" stroke-miterlimit="10"/>
<path d="M347.937 275.342C348.457 275.582 346.467 276.332 345.917 276.142C345.397 275.902 347.387 275.152 347.937 275.342Z" fill="#766E66" stroke="white" stroke-miterlimit="10"/>
<path d="M350.777 275.342C351.297 275.582 349.307 276.332 348.757 276.142C348.237 275.902 350.227 275.152 350.777 275.342Z" fill="#766E66" stroke="white" stroke-miterlimit="10"/>
<path d="M352.397 275.741C352.197 276.521 351.497 276.651 350.777 276.541C350.357 276.341 351.867 275.571 352.397 275.741Z" fill="#766E66" stroke="white" stroke-miterlimit="10"/>
<path d="M353.207 272.501C353.007 273.281 352.307 273.411 351.587 273.301C351.167 273.101 352.677 272.331 353.207 272.501Z" fill="#A8A099" stroke="white" stroke-miterlimit="10"/>
<path d="M142.857 276.551C142.417 276.931 140.587 275.281 140.837 274.531C140.987 274.371 143.027 276.411 142.857 276.551Z" fill="#E3E0DD" stroke="white" stroke-miterlimit="10"/>
<path d="M339.427 291.152V291.552C338.327 291.532 337.117 292.652 337.407 291.152H339.427Z" fill="#8B827A" stroke="white" stroke-miterlimit="10"/>
<path d="M342.667 289.932C343.187 290.172 341.197 290.921 340.647 290.731C340.127 290.491 342.117 289.742 342.667 289.932Z" fill="#8B827A" stroke="white" stroke-miterlimit="10"/>
<path d="M327.677 296.822C327.597 297.382 325.347 298.542 325.247 298.442C324.527 297.712 327.337 296.742 327.677 296.822Z" fill="#A09992" stroke="white" stroke-miterlimit="10"/>
<path d="M279.847 307.761L278.227 307.751L278.237 307.362L279.847 306.951V307.761Z" fill="#B9B2AD" stroke="white" stroke-miterlimit="10"/>
<path d="M301.327 286.282C300.617 286.372 300.947 285.362 300.927 284.872C300.887 283.862 300.957 282.832 300.927 281.832C301.637 281.742 301.307 282.751 301.327 283.241C301.367 284.251 301.297 285.282 301.327 286.282Z" fill="#A09992" stroke="white" stroke-miterlimit="10"/>
<path d="M313.077 299.652C312.157 299.292 312.907 297.212 312.677 296.412C313.597 296.772 312.847 298.852 313.077 299.652Z" fill="#B9B2AD" stroke="white" stroke-miterlimit="10"/>
<path d="M314.707 283.042C314.807 283.802 314.707 284.442 313.907 284.662V283.042H314.707Z" fill="#BCB6B1" stroke="white" stroke-miterlimit="10"/>
<path d="M319.977 259.531H319.577V261.552H319.977V259.531Z" fill="#BCB6B1" stroke="white" stroke-miterlimit="10"/>
</svg>
