<svg width="500" height="500" viewBox="0 0 500 500" fill="none" xmlns="http://www.w3.org/2000/svg">
    <path d="M332.758 396.589C359.788 392.429 385.098 381.449 409.938 370.439C424.708 363.179 438.148 353.579 450.938 343.699C466.518 330.849 471.208 301.319 471.208 292.679C471.208 292.679 472.108 269.069 467.028 258.789C462.038 247.689 455.128 240.479 445.078 233.829C428.828 223.079 409.128 217.289 390.628 211.649C388.318 190.539 387.078 169.819 381.908 149.139C379.478 139.429 375.378 124.989 366.978 118.879C355.678 110.639 333.428 111.109 319.968 112.469C315.948 112.879 310.638 114.629 306.728 114.679C303.748 114.719 296.948 112.879 293.608 112.189C258.468 104.889 196.038 86.3186 166.398 112.659C158.118 120.019 156.998 129.099 153.018 138.579C145.688 156.029 135.508 173.739 129.188 191.379C125.178 202.559 123.878 214.309 120.748 225.679C94.4879 236.739 68.6379 250.089 48.5079 270.599C48.3479 270.769 48.1779 270.919 48.0179 271.089L39.2779 281.469L38.6879 283.369C37.7479 284.169 37.3279 285.299 36.7279 286.319L35.7479 288.279C35.5179 288.679 35.4179 288.939 35.2579 289.259C34.4279 290.039 34.0179 291.119 33.7879 292.209C31.0379 297.939 30.1279 301.629 29.3679 307.929C28.9879 309.029 28.7779 317.769 29.3679 319.229C29.3279 319.679 34.1179 340.469 36.7379 340.839C38.9779 348.079 45.1479 354.919 50.2779 360.569C54.0579 364.729 58.2279 368.779 62.5279 372.029C63.3079 372.619 69.0279 375.979 71.4679 377.279C74.1879 378.729 99.5679 389.989 99.6579 390.199C99.8179 390.599 108.208 393.029 108.208 393.029C119.268 396.259 130.428 399.199 141.698 401.849C147.788 403.139 166.778 406.309 170.298 406.659C170.298 406.659 207.168 409.989 210.728 410.209C211.408 410.249 262.498 408.529 270.448 407.899" fill="#191919"/>
    <path d="M116.788 241.599C117.258 238.329 116.538 236.329 118.018 232.759C118.278 232.129 119.048 230.539 119.728 230.309C119.448 235.809 117.618 241.519 121.218 246.259C131.218 259.429 168.358 266.149 184.408 268.539C224.048 274.449 266.158 271.679 305.608 265.629C315.748 264.079 325.708 260.929 336.128 261.239C337.898 261.289 343.188 262.489 344.348 262.169C345.058 261.979 345.628 260.819 346.528 260.379C354.708 256.429 364.308 253.479 372.848 249.349C373.548 249.009 374.558 249.139 375.028 248.839C375.448 248.569 379.618 242.029 380.858 240.669C382.878 238.459 387.248 235.519 388.908 233.249C390.768 230.729 391.648 233.689 390.038 235.369C385.628 239.259 381.778 243.619 378.498 248.459L377.118 248.969C376.068 251.649 374.448 252.789 372.288 252.389L356.418 260.639C356.998 263.419 355.358 265.209 351.498 265.989C351.788 269.059 352.188 272.089 352.688 275.069C351.978 276.599 352.138 277.259 353.158 277.029C353.778 277.889 355.618 287.259 353.548 287.769C353.388 289.069 352.938 289.019 352.568 287.769C352.128 287.679 352.148 287.509 352.568 287.279C352.538 286.159 351.918 283.869 351.248 285.569C349.318 286.659 347.228 287.339 344.988 287.599C343.308 290.229 341.398 290.429 340.988 287.239C340.178 286.979 336.908 283.379 337.088 282.549C337.648 279.969 345.418 276.519 347.998 275.699C349.228 277.099 349.928 277.359 350.108 276.479C349.168 272.779 348.508 269.009 348.148 265.179C346.658 264.519 345.188 263.859 343.728 263.219C342.078 264.469 337.428 264.409 335.838 263.129C334.918 263.669 334.108 263.699 333.418 263.219C333.748 262.619 333.198 262.629 331.768 263.269C331.498 262.869 329.778 262.849 329.318 263.239C326.978 263.279 324.868 263.339 323.398 264.959C321.568 264.199 319.418 264.629 317.758 266.159C315.038 266.299 312.638 266.799 310.558 267.639C311.408 269.169 311.138 270.629 310.418 272.239C311.578 280.449 312.268 289.119 310.928 297.389C311.868 298.659 311.948 301.449 310.828 302.509C311.438 303.909 311.468 305.519 310.898 307.329C312.778 307.429 312.858 310.529 311.318 311.349C310.628 312.549 310.068 312.169 310.338 310.859C310.558 310.319 310.398 310.319 309.848 310.859C312.838 315.149 307.668 319.119 307.408 312.369C308.028 298.809 307.998 285.329 307.318 271.929C306.788 267.169 306.148 267.219 301.398 267.819C291.978 269.709 282.548 270.999 273.088 271.679C272.668 273.039 271.338 273.149 270.638 271.979C263.658 272.839 256.698 273.229 249.768 273.139C249.308 275.309 247.568 274.629 245.898 273.739L238.138 273.439C237.918 275.019 236.338 275.059 235.738 273.589C234.498 274.969 232.988 276.229 232.788 273.449L232.348 273.469C232.968 276.059 231.568 280.959 230.268 276.469L231.248 278.259C230.628 281.109 230.308 284.119 230.268 287.269C230.488 284.349 230.708 281.389 230.918 278.389L231.738 278.429C232.238 283.759 232.318 289.629 231.738 295.129C232.158 289.659 232.238 284.159 231.998 278.639C231.048 278.389 231.048 278.149 231.998 277.919C231.888 276.559 231.818 275.369 233.218 276.459C233.548 279.029 233.938 282.229 233.218 284.809C233.888 281.959 233.768 277.949 232.738 275.669C233.518 273.229 236.728 274.799 234.698 277.679C235.198 280.849 235.558 284.949 234.698 288.239C235.308 285.059 235.508 279.639 234.958 276.409C234.638 274.529 236.448 275.019 236.868 276.569C237.258 280.219 237.338 283.889 237.088 287.579C239.438 287.909 238.998 289.959 237.188 290.919C236.918 294.069 236.948 297.249 237.278 300.459C237.628 303.129 236.888 304.419 235.058 304.319L235.128 292.349C234.568 291.869 234.158 291.839 233.838 292.579C233.638 290.989 233.428 289.379 233.218 287.749C233.618 288.919 233.698 290.189 233.458 291.559L234.198 292.049C233.708 293.199 233.378 294.549 233.218 296.099C233.558 294.809 233.718 293.409 233.718 291.899L234.688 292.169L235.118 292.319L234.938 303.119C235.468 304.119 235.288 304.429 234.688 305.429C234.708 304.399 235.788 303.309 236.538 303.599C237.058 303.799 237.548 313.139 237.108 313.979C236.388 315.349 235.698 315.859 235.188 314.269C234.758 311.749 234.778 308.489 235.188 305.919C235.048 306.349 234.888 306.339 234.698 305.919C234.978 308.569 235.058 311.299 234.948 314.119C236.208 314.379 236.068 317.349 234.698 317.709C234.118 320.319 233.938 323.069 234.148 325.969L235.188 327.039C233.558 326.569 233.678 320.429 235.188 319.669C235.538 317.459 238.308 319.869 236.438 320.689C236.128 323.269 236.208 325.709 236.668 328.019C235.878 325.939 236.318 322.869 236.668 320.649C236.828 318.429 239.108 320.769 238.498 321.399C237.528 322.399 239.508 318.349 240.698 319.989C240.518 322.299 240.648 324.489 241.088 326.539C240.548 325.069 240.438 323.179 240.778 320.879C239.928 319.949 239.748 319.719 241.088 319.169C243.028 316.359 243.018 321.309 242.708 323.359L242.988 326.049C243.838 324.829 245.188 324.669 245.948 326.049C248.098 325.609 249.558 325.919 250.308 327.009C250.268 325.209 251.858 323.829 253.518 324.749C254.458 322.559 255.888 324.049 256.018 325.829C258.708 324.099 259.238 327.879 257.788 329.479C222.308 332.679 184.448 330.239 150.108 320.499C134.628 316.109 109.608 307.799 110.918 288.219C111.328 286.969 112.108 287.029 112.768 288.169C113.258 292.539 114.038 298.199 118.398 300.289C117.378 298.889 120.088 295.799 121.138 296.239C121.418 296.359 124.328 300.099 120.658 296.399C120.738 292.989 120.108 291.179 117.288 289.069C119.428 286.589 120.628 286.799 122.448 289.389C131.518 295.159 124.008 291.359 120.648 287.759C120.568 287.679 120.648 287.429 120.808 287.139C118.038 285.029 117.708 284.549 118.408 281.309C117.498 279.959 117.758 276.339 119.238 275.659C118.478 274.239 117.678 272.799 116.828 271.339C117.808 269.799 117.958 268.749 117.288 268.199C117.728 267.249 117.688 266.179 117.178 264.999C117.998 264.009 118.088 263.219 117.448 262.629C117.348 259.859 117.258 257.399 116.918 254.599C117.498 252.309 117.518 250.539 117.508 248.259C117.508 247.689 117.768 247.299 118.288 247.059C116.898 245.429 116.848 243.609 116.818 241.549L116.788 241.589V241.599Z" fill="#E3E0DD"/>
    <path d="M257.758 329.529C257.498 328.339 257.198 327.249 257.758 326.099L254.818 327.569V324.129L253.828 326.579L252.858 326.339L252.608 325.099L250.888 326.579L253.828 327.549C252.578 327.219 249.848 328.499 248.918 328.039C248.848 328.009 249.678 326.709 248.428 326.569C248.698 328.439 248.108 328.109 246.458 328.039L247.438 327.069C245.468 326.399 245.758 328.359 244.008 328.039C243.788 327.249 244.858 327.729 244.998 327.309C245.188 326.759 245.178 325.799 244.258 326.069C244.128 326.109 243.228 327.709 242.048 327.549C241.658 325.039 241.548 322.369 241.918 319.829C242.058 318.859 242.018 319.229 241.068 319.199V326.569C239.508 326.709 240.308 326.419 240.258 325.639C240.158 324.179 240.238 322.769 240.448 321.309C240.608 320.199 239.738 320.499 239.598 320.679V328.039C237.428 326.869 239.898 323.389 238.368 321.659C237.878 321.629 238.598 328.979 237.148 327.059C237.148 325.129 237.238 323.209 237.508 321.309C237.648 320.339 237.618 320.709 236.658 320.679V328.049C235.708 327.879 235.988 327.339 235.918 326.739C235.678 324.629 236.338 322.199 236.188 320.449C236.108 319.499 236.238 319.649 235.188 319.709V327.079C235.188 327.189 233.418 327.049 234.118 328.499C233.108 327.949 232.398 330.239 231.748 329.539C230.788 328.499 233.038 327.719 233.158 327.269L233.218 309.409C233.918 309.259 233.888 310.359 233.908 310.819C233.968 312.769 233.448 314.999 233.708 317.029C233.818 317.929 233.538 317.819 234.688 317.759V305.969H235.178V314.319C236.328 314.389 236.048 314.489 236.158 313.589C236.548 310.519 235.688 307.099 236.158 304.009L234.688 305.479V292.219C232.778 292.809 234.978 295.739 233.218 296.149V287.799C234.448 288.059 233.568 291.579 233.708 291.729C235.948 292.239 233.418 288.379 235.668 288.789L235.178 303.519C235.788 304.319 236.068 303.519 236.158 302.789C236.628 299.129 235.538 294.629 236.158 290.969C236.388 289.609 238.158 290.119 237.638 288.289L236.168 289.759C235.888 285.759 236.658 281.199 235.898 277.299C235.798 276.789 236.188 276.179 235.188 276.009C235.148 279.359 235.908 283.299 235.558 286.569C235.498 287.099 235.468 288.359 234.688 288.289V277.729C234.688 276.849 234.978 275.009 233.708 275.519C233.418 277.909 234.038 280.509 233.928 282.809C233.898 283.339 234.028 284.929 233.218 284.849V276.499L232.228 277.229L232.528 291.429L231.738 295.159V278.459C230.118 279.999 231.198 283.649 230.948 285.879C230.888 286.399 231.008 287.419 230.268 287.299V276.489L231.738 277.959L231.248 272.559C233.458 272.519 234.028 272.009 233.708 274.519C234.628 274.679 233.938 273.579 234.278 273.149C234.688 272.619 237.588 271.959 236.658 274.029C237.618 274.179 236.908 272.879 237.148 272.549C237.428 272.179 245.058 273.179 246.398 272.669L246.718 273.549L247.948 272.559L248.188 274.039C248.998 273.729 248.418 272.709 248.508 272.639C250.148 271.369 256.368 272.479 258.518 272.329C262.398 272.059 266.618 270.629 270.818 271.049C271.998 271.169 271.118 272.169 272.008 272.069L272.278 270.569C278.178 272.049 302.968 265.189 306.408 266.909C309.268 268.349 308.198 278.649 308.358 281.679C308.558 285.619 309.218 290.009 309.188 293.939C309.138 300.139 307.758 306.859 308.438 313.029C308.498 313.579 308.568 315.329 309.338 315.309C310.058 313.859 309.628 312.259 309.838 310.889C309.978 310.459 310.138 310.469 310.328 310.889L311.308 311.379C313.218 312.709 314.128 315.449 313.698 318.049C315.048 315.789 316.648 315.619 318.488 317.539C319.928 317.059 321.518 316.829 323.248 316.839C323.198 315.369 324.878 314.999 325.458 316.349C326.238 315.199 326.738 315.269 328.098 315.509C329.878 313.949 331.568 313.649 333.178 314.619C333.258 312.599 333.988 311.849 335.368 312.379C335.208 308.889 337.568 310.469 339.298 311.869C339.728 312.009 339.718 312.169 339.298 312.359C340.198 312.359 340.858 312.529 341.258 312.849C342.438 313.329 342.208 313.629 341.258 314.319C332.248 318.619 325.358 320.909 315.408 322.609C313.828 322.879 311.598 322.469 310.638 322.649C310.248 322.729 310.328 323.609 309.998 323.669C308.808 323.889 308.178 322.909 307.318 322.899C302.018 322.829 290.038 325.759 283.778 326.589C281.938 325.379 281.628 325.229 282.838 326.109L282.308 326.589C281.448 326.699 280.468 326.949 279.358 327.079C276.888 326.779 274.248 326.869 271.988 328.059C271.828 328.059 271.658 328.059 271.498 328.059L270.468 327.769C268.638 328.329 264.338 328.049 267.438 326.239C267.528 326.189 268.818 325.939 266.548 326.499C264.798 326.929 264.078 327.549 266.098 328.549C265.098 329.529 263.088 328.919 261.678 329.039C261.111 328.732 261.111 328.732 261.678 329.039C260.588 329.139 259.128 329.409 257.748 329.529H257.768H257.758Z" fill="#B9B2AD"/>
    <path d="M393.828 234.719C394.538 243.339 394.388 251.849 393.398 260.229C391.818 267.619 389.248 271.189 382.548 274.409C380.688 275.619 380.028 277.609 380.578 280.379L379.588 280.889C379.498 282.169 378.658 282.159 377.838 281.299C376.308 282.169 375.068 282.239 374.098 281.529L364.418 285.619C363.858 285.539 363.338 285.309 362.838 284.939L358.528 286.929L357.488 286.289C352.878 287.159 354.808 282.609 357.978 284.819C358.278 284.639 358.278 284.479 357.978 284.329C357.888 284.479 357.798 284.589 357.678 284.609C357.268 284.689 354.568 283.409 354.398 282.999C354.058 282.179 356.538 278.919 357.878 278.559L357.648 278.169C356.008 279.029 354.978 278.809 354.568 277.519C350.468 279.209 352.748 272.279 354.268 271.049C356.918 268.919 362.108 270.599 357.438 272.919C356.868 274.069 366.288 270.049 366.808 269.759C366.288 267.689 370.598 262.359 372.608 265.089C373.998 263.849 375.278 263.639 376.468 264.459C375.868 261.269 375.268 257.779 375.508 254.219C374.068 252.469 374.178 251.529 375.838 251.419C376.038 250.409 376.468 249.589 377.128 248.959C378.508 246.259 380.038 244.119 382.058 241.849C383.808 239.879 388.918 235.919 389.818 233.889C390.288 232.819 389.898 232.419 388.928 233.239C389.248 232.799 391.388 227.979 391.388 227.589V218.989C392.228 219.119 392.268 219.949 392.508 220.569C393.678 223.599 393.788 231.129 393.848 234.709H393.828V234.719Z" fill="#A8A099"/>
    <path d="M396.288 276.469C396.308 276.949 396.308 277.459 396.288 277.939L395.798 280.889C394.728 284.879 392.428 288.419 389.408 291.209L384.808 293.739C382.488 294.149 380.418 294.779 378.598 295.639C378.458 295.939 377.908 296.539 377.618 297.109C375.388 299.199 373.318 296.499 376.168 294.459L375.788 293.869C373.858 294.829 373.618 292.829 373.988 291.189C374.328 289.039 369.588 289.369 370.238 291.749C368.908 291.829 368.228 292.949 368.208 295.109C370.528 293.659 372.118 292.769 373.938 295.639C375.528 298.149 370.938 300.609 369.268 299.069C368.928 298.749 368.928 298.749 369.268 299.069C369.068 300.539 367.848 301.679 365.598 302.499L357.008 305.259C356.658 307.189 353.858 308.289 352.558 306.929C351.618 306.779 351.288 304.239 351.238 303.209C351.688 300.749 351.788 298.079 351.078 295.629C349.858 294.779 350.098 294.079 351.568 294.159C352.398 292.769 352.838 291.289 352.908 289.689L353.528 289.239C353.918 287.809 354.488 286.619 355.238 285.689C356.698 286.679 357.438 286.879 357.458 286.289C359.638 285.499 373.858 278.329 374.648 278.929C374.698 279.249 374.388 279.479 374.158 279.659C373.128 280.469 366.858 282.769 364.918 283.709C364.248 284.029 363.568 283.399 363.838 284.819L375.378 279.899L374.648 281.369L378.818 279.899L378.328 280.889H379.558L380.488 282.449L380.158 292.089C386.568 290.929 391.868 284.809 393.608 278.719C393.488 275.939 394.978 272.419 396.258 276.469H396.288Z" fill="#8B827A"/>
    <path d="M116.788 241.599C117.428 245.019 119.718 247.479 122.188 249.709C119.928 250.799 120.338 247.289 118.258 247.989C119.578 250.699 117.408 253.039 117.938 256.009C118.058 256.669 119.008 256.939 118.748 257.809L117.778 258.049L118.748 259.779L117.778 260.009L119.748 262.469L118.278 261.739C117.618 262.609 121.818 265.489 122.198 266.649L118.768 264.199C117.048 266.339 118.858 265.359 119.248 267.629L117.778 267.379L122.688 272.299C121.508 273.169 118.718 268.639 118.278 269.099L122.198 274.009C121.498 274.639 118.698 271.039 118.018 270.579C117.658 270.499 117.688 271.089 117.778 271.309C118.318 272.519 121.798 274.849 122.688 276.229C121.578 277.139 119.188 273.079 118.768 273.529L122.198 277.949L118.758 276.229L122.198 279.909L118.998 277.459C118.458 279.049 121.548 280.269 122.198 281.869L118.998 279.419C118.638 279.339 118.658 279.929 118.758 280.149C119.468 281.729 123.788 284.169 125.138 285.559C122.828 285.619 120.648 282.829 118.998 281.379C118.878 283.869 122.788 284.589 123.668 286.779L118.268 283.589L123.178 288.019C123.068 288.629 120.168 286.999 121.698 288.519C124.588 291.389 129.428 292.419 132.018 295.629C129.778 294.719 127.218 293.219 125.178 291.909C123.868 291.069 121.378 288.679 120.468 288.269C120.258 288.169 119.658 288.149 119.738 288.509C121.278 290.739 124.338 291.769 126.128 293.409C126.758 293.989 126.938 294.269 125.878 294.149L117.768 288.269L123.168 293.429L120.718 292.699L122.188 294.419L121.208 294.669L122.188 296.139L121.208 296.389L126.608 300.819C125.138 301.519 120.878 296.539 120.228 297.139L122.188 299.589L119.968 298.129C118.388 298.049 120.548 299.059 118.748 299.349L119.978 300.579C120.388 298.139 123.398 301.849 124.638 302.789C123.858 303.699 122.938 301.489 122.188 302.059C122.018 302.189 122.648 302.689 122.538 302.939C122.488 303.059 121.928 302.999 121.838 303.129C121.668 303.369 122.868 304.229 121.458 304.009C120.138 301.949 116.658 300.959 115.308 299.349C113.288 296.939 112.398 292.979 111.888 289.969C111.728 289.049 112.438 288.009 110.898 288.289C111.148 284.559 112.368 280.849 112.788 277.169C114.168 265.289 115.088 253.429 116.788 241.619V241.599Z" fill="#C0BDBC"/>
    <path d="M396.288 276.469L395.308 275.239C394.518 276.239 394.948 277.668 394.598 278.948C392.788 285.518 386.238 292.958 379.098 293.168C379.638 289.088 379.408 284.989 379.588 280.889C379.678 278.809 379.128 276.859 380.348 275.009C381.398 273.419 386.558 271.329 388.428 269.339C391.928 265.619 393.288 257.089 393.338 252.139C393.408 246.269 393.918 240.548 393.828 234.708L394.828 243.778C394.328 254.708 395.778 265.649 396.278 276.469H396.288Z" fill="#766E66"/>
    <path d="M369.268 299.068C369.788 298.778 372.788 298.009 373.148 297.519C373.428 297.139 373.148 294.719 371.708 295.629C371.928 295.219 372.708 294.398 371.488 294.658C369.188 295.148 366.868 297.529 364.348 297.589L367.788 295.379L366.318 294.648L368.278 294.148L365.338 293.668L368.278 292.428L366.808 291.698L370.238 290.708H367.298C368.238 288.988 370.998 289.659 372.468 288.269L372.698 289.239C375.658 288.439 374.978 291.568 374.668 293.658L375.898 292.188L377.618 294.898L375.168 296.609L377.628 297.109C377.208 297.929 376.528 299.939 375.668 300.339C375.148 300.579 374.808 299.739 374.438 299.739C373.328 299.719 370.848 302.289 370.488 303.499C367.278 301.459 369.058 303.098 367.508 304.428C367.228 304.668 361.648 307.568 361.038 307.798C360.268 308.088 359.178 307.688 358.568 308.028C358.348 308.148 358.228 309.039 357.368 309.509C355.028 310.779 350.318 312.079 347.658 311.349C347.428 309.899 348.518 308.878 350.928 308.298C351.448 307.538 351.998 307.078 352.578 306.928C353.058 306.548 355.448 306.288 355.558 306.178C356.018 305.718 355.868 304.798 356.118 304.568C356.458 304.258 363.398 302.379 364.848 301.759C366.718 300.959 367.898 299.828 369.278 299.068L367.808 298.828C368.258 298.308 368.548 297.929 369.278 298.089V299.068H369.268Z" fill="#766E66"/>
    <path d="M351.098 295.629L353.548 296.129C353.148 297.249 350.838 297.149 353.058 297.839C351.058 299.399 353.198 300.419 352.568 301.519H355.028C354.968 302.529 352.298 302.279 352.078 302.509C351.558 303.079 352.288 303.739 353.038 303.509C351.688 304.499 352.718 306.249 352.568 306.919C351.918 309.869 350.738 309.129 349.468 309.919C348.788 310.349 348.198 311.009 347.648 311.339C345.268 312.759 343.428 313.249 341.258 314.289C341.208 313.809 341.328 313.279 341.258 312.819L339.298 312.329V311.839C340.148 310.309 340.388 309.329 340.778 307.589C342.468 307.199 343.828 306.439 344.858 305.299C346.448 305.269 347.818 304.589 348.958 303.249C349.868 303.819 350.418 304.059 350.608 303.979C350.268 302.329 349.788 299.879 349.818 298.309C349.848 297.149 349.998 296.259 351.098 295.629Z" fill="#BCB6B1"/>
    <path d="M266.108 328.539H263.648C264.118 328.049 263.538 326.749 263.678 326.619C264.138 326.199 267.398 325.919 266.598 324.129L267.568 326.089C267.548 324.509 269.638 325.729 269.058 323.639C269.808 323.639 270.148 326.929 270.038 327.079C269.128 328.189 269.188 325.819 268.578 326.109C268.928 327.639 267.158 326.539 267.098 327.569C268.128 327.729 269.128 327.489 270.148 327.429C270.988 327.379 271.718 326.369 271.518 328.069C269.628 328.229 268.088 328.559 266.118 328.559V328.539H266.108Z" fill="#E3E0DD"/>
    <path d="M272.008 328.049L273.478 326.579C271.838 327.039 272.168 324.829 270.778 326.079C270.388 326.179 270.468 325.179 270.538 325.109C270.648 324.989 273.558 324.309 273.718 324.329C273.808 324.329 275.378 325.049 275.448 325.119C276.578 326.389 273.678 325.759 273.978 326.579C274.878 326.219 277.518 326.729 278.078 326.529C278.978 326.209 278.538 325.029 279.378 325.119V327.079C276.918 327.369 274.508 327.829 272.018 328.059L272.008 328.049Z" fill="#E3E0DD"/>
    <path d="M282.328 326.579L281.838 325.109L279.878 324.619C281.518 325.009 281.288 323.759 282.328 323.139V325.349C283.738 326.469 283.968 324.559 284.438 324.279C285.118 323.869 286.258 323.909 286.658 323.559C286.738 323.489 286.138 322.219 287.238 322.159L288.718 323.639L287.238 324.129L287.738 325.599C286.478 325.809 284.688 325.409 283.808 326.589C283.338 326.649 282.808 326.529 282.338 326.589L282.328 326.579Z" fill="#E3E0DD"/>
    <path d="M389.408 291.208C386.398 293.988 382.678 295.369 378.598 295.629C378.718 295.359 378.408 294.358 378.618 294.188C378.828 294.018 382.838 293.888 384.108 293.528C385.968 292.998 387.458 291.548 389.408 291.208Z" fill="#766E66"/>
    <path d="M395.798 280.899C395.868 279.969 395.418 278.499 396.288 277.949C396.228 279.449 396.138 279.629 395.798 280.899Z" fill="#766E66"/>
    <path d="M310.818 302.509C309.938 300.929 311.418 298.119 309.828 297.849C311.338 292.189 310.358 282.599 310.078 276.199C309.978 273.889 308.278 271.439 310.808 270.089L309.328 270.329L310.308 268.129C309.328 267.989 310.388 269.389 309.088 269.109C307.928 268.859 310.208 266.369 310.688 266.199C312.528 265.549 316.098 265.829 317.838 265.079C318.598 264.749 318.558 263.749 318.978 263.659C319.748 263.509 320.418 264.109 320.898 264.149C321.068 264.159 322.478 261.469 323.078 264.189H323.558C323.518 263.679 323.648 263.269 324.158 263.049C326.408 262.049 330.218 262.259 332.708 262.309C333.888 262.329 334.268 261.809 333.388 263.209L333.738 263.669C335.118 263.189 335.588 264.459 335.138 267.469C336.028 269.349 336.128 270.659 335.448 271.419C336.818 272.089 337.348 273.309 337.058 275.089C342.688 275.449 344.688 270.649 344.528 265.549C342.548 264.519 342.268 263.749 343.688 263.209C346.068 263.449 347.018 262.329 348.108 265.169C348.478 268.999 349.138 272.759 350.068 276.469C351.018 278.199 351.278 279.329 351.048 281.379L347.868 276.489C344.378 278.379 340.598 279.699 337.798 282.619C339.038 283.339 338.968 285.459 340.238 284.339L340.738 286.799L341.708 285.329C342.258 286.469 341.498 289.589 343.178 288.529L342.698 286.309C343.358 286.009 343.168 288.339 344.168 287.289C344.328 287.119 343.448 286.099 343.678 285.819C345.728 287.639 346.088 285.969 346.368 285.889C346.558 285.839 347.368 286.299 348.128 286.029C350.608 285.159 352.768 282.369 352.518 287.289C351.648 288.049 351.738 285.459 351.758 285.579C352.388 288.149 350.578 289.609 346.308 289.949C345.698 291.679 344.198 292.509 341.798 292.459C341.588 293.919 340.678 294.179 339.408 294.109C338.468 296.279 337.158 294.819 336.798 294.169L335.648 293.679C335.338 294.679 334.248 295.169 332.368 295.159C331.908 296.189 331.418 295.979 330.838 295.059C329.798 296.839 327.388 295.319 329.128 294.429C329.208 294.019 329.038 292.549 328.958 292.029C328.848 291.349 329.658 295.439 328.458 295.229C328.848 297.789 328.358 299.019 325.488 299.089C324.078 298.869 324.108 296.659 325.238 296.139C325.128 293.789 325.208 291.499 325.488 289.269C325.348 289.699 325.188 289.689 324.998 289.269C325.438 291.239 325.398 294.069 324.998 296.149C324.728 297.999 323.008 296.849 323.188 295.229C324.628 291.339 320.578 296.749 320.358 298.319C317.978 299.999 317.338 295.339 318.868 295.359C319.208 295.359 318.628 296.209 317.878 295.649C318.598 298.589 313.798 297.699 315.038 294.139L314.688 290.259C314.968 292.379 315.048 294.499 314.938 296.639C316.058 296.849 315.748 297.199 314.688 297.619C314.848 299.079 313.828 308.229 310.978 304.129L310.758 302.529L310.818 302.509Z" fill="#BCB6B1"/>
    <path d="M310.818 302.509L312.298 303.979C312.488 304.169 313.058 303.549 313.168 303.139C313.848 300.569 313.188 296.009 313.768 293.179L314.748 297.599V290.229L315.438 294.099L315.248 296.619L316.708 295.149L317.198 297.109V293.679L318.178 293.909L318.678 295.639V292.209C319.538 292.099 319.148 293.329 319.168 293.919C319.228 295.309 319.128 296.709 319.168 298.099C320.268 298.119 319.288 296.079 319.708 295.669C320.068 295.309 321.698 296.499 321.128 293.679L319.668 295.149C319.258 293.189 320.098 293.219 321.388 292.209L321.638 294.169C322.518 294.289 322.038 292.269 322.858 292.219C322.948 292.219 324.238 292.999 324.358 293.189C325.218 294.519 322.988 296.479 325.068 296.139V289.259H325.558V299.079L326.548 292.209C327.388 292.119 327.078 293.899 327.058 294.439C326.998 295.729 326.688 296.839 326.548 298.099C328.568 298.329 327.098 294.259 327.538 293.189L329.008 294.659V291.719L329.508 295.149C330.278 295.349 329.798 294.559 330.148 294.329C331.108 293.679 331.618 294.839 331.708 292.199C332.228 292.199 331.838 294.259 331.938 294.869C332.008 295.289 332.428 295.129 332.448 295.149C332.488 294.339 332.408 293.509 332.448 292.689L333.918 292.199L334.408 294.649L334.898 292.199C336.148 293.289 337.248 292.109 336.858 294.159C337.288 295.589 335.668 297.669 334.248 298.189C334.708 300.229 331.798 300.749 332.428 298.729C332.738 297.729 332.958 296.009 332.428 295.139C332.828 296.839 333.328 300.439 330.728 299.889C330.808 302.799 328.748 305.449 326.068 303.229C324.748 304.969 324.818 305.579 326.288 305.049C327.248 306.829 328.708 307.259 330.678 306.339C331.828 307.499 332.528 307.729 332.788 307.039C336.318 306.629 340.158 304.589 341.798 301.229C343.408 301.059 344.768 300.159 345.878 298.509C348.978 296.599 350.558 298.429 350.598 303.989C350.648 304.989 351.398 306.239 351.088 307.429C349.108 307.849 350.708 304.879 349.868 303.999C348.848 304.079 347.658 305.779 347.528 305.849C346.268 306.499 343.818 304.949 345.198 308.909L344.708 307.439C344.558 307.349 341.398 308.299 341.268 308.419C340.428 309.289 342.228 309.509 342.258 309.639C342.798 311.509 341.518 310.409 341.358 310.489C341.118 310.609 340.968 311.399 339.298 311.849C338.918 311.949 336.918 312.459 336.858 312.349C336.628 311.919 337.298 310.729 336.348 310.869V313.329C335.448 312.789 335.248 312.669 335.358 313.809H334.878L334.388 312.339C334.768 318.089 332.398 314.729 331.288 314.879C330.788 314.949 327.258 316.779 327.498 317.729L327.008 315.769L326.278 317.249C325.218 317.279 324.378 317.539 324.548 316.259H324.068C324.618 317.669 323.088 317.749 323.078 317.969C323.048 318.529 324.278 317.799 324.068 318.699L322.598 317.729C321.138 317.809 320.398 319.059 319.888 317.229L319.648 318.209L317.688 318.719L317.438 317.239L316.208 318.709L315.718 316.259L315.468 318.099L312.768 319.699C312.368 319.119 312.878 315.419 312.768 314.599C312.708 314.199 311.508 314.519 311.308 311.349C311.238 310.209 311.368 309.049 311.308 307.909C310.678 307.619 310.768 309.979 309.838 308.889C309.628 308.639 310.408 303.199 310.818 302.509Z" fill="#A09992"/>
    <path d="M377.128 248.969C376.508 250.179 376.248 251.669 375.168 252.659C378.118 253.459 374.958 257.789 377.128 257.819L376.148 259.039C377.828 259.319 376.488 261.349 376.658 262.419C376.718 262.779 377.428 262.659 377.508 262.959C377.738 263.909 377.398 265.929 376.158 266.159C375.548 262.839 373.188 266.919 370.988 266.649L371.718 265.179C370.338 264.179 368.178 268.859 366.808 269.589L374.918 265.669C375.648 266.069 374.848 266.839 374.428 267.149C372.508 268.589 360.208 273.739 357.608 274.399C357.218 274.499 356.878 274.559 356.488 274.499L356.988 273.529C356.388 273.089 354.278 274.959 354.528 273.289L358.938 271.079C353.758 271.189 354.768 271.859 353.268 275.479C353.068 275.959 351.748 276.579 352.318 276.979C356.868 276.379 360.848 273.629 365.328 272.559L355.508 277.229C355.328 278.519 356.028 277.659 356.718 277.459C358.318 276.989 359.748 276.109 361.398 275.999L357.968 278.209L359.678 277.949C360.778 279.379 357.288 279.329 356.498 280.659C357.778 281.059 359.258 279.629 360.388 279.139C361.218 278.779 361.928 278.689 360.938 279.689L355.028 282.379C355.108 283.609 357.158 282.039 357.478 282.379C357.678 282.599 356.388 283.949 357.968 284.339C358.398 284.479 358.388 284.639 357.968 284.829C357.168 285.039 356.348 285.269 355.518 285.329V285.809L357.478 286.309C357.598 288.329 357.008 286.589 356.258 286.479C354.728 286.259 355.058 288.909 353.548 289.259C352.698 289.159 352.838 288.209 353.548 287.789C353.808 283.199 353.168 281.789 352.328 277.979C351.998 276.499 351.948 274.559 351.118 274.209C351.818 272.589 350.018 265.979 350.658 265.239C350.828 265.039 355.048 263.709 355.458 263.169C355.518 263.089 355.608 261.309 355.528 261.259C355.198 261.039 353.898 261.729 354.048 260.769L372.968 250.939C373.498 252.819 373.378 251.389 374.518 251.089C374.888 250.989 375.588 251.479 375.638 251.419C375.768 251.299 375.748 249.139 377.138 248.969H377.128Z" fill="#B9B3AD"/>
    <path d="M352.568 287.278V287.768C353.478 289.028 352.738 291.448 352.208 292.968C352.768 293.158 352.568 293.548 351.588 294.158C351.588 294.248 351.188 294.848 351.098 295.628C350.778 298.368 350.478 301.208 350.608 303.978C348.628 302.688 351.178 298.808 347.908 298.758C345.438 298.718 344.688 303.218 342.258 301.528L342.748 302.998H341.268L341.768 304.468H340.288C341.288 307.018 340.448 305.358 338.858 305.718C337.728 305.978 336.638 306.878 336.118 307.908L335.388 306.928C335.828 308.098 334.988 308.738 333.998 308.238C333.768 308.118 334.208 307.198 333.418 307.418C333.548 310.808 331.848 307.378 330.958 308.408L330.708 306.928C329.788 307.798 328.658 307.798 328.978 309.378L328.248 307.418C327.898 307.998 326.988 308.128 326.648 308.538C326.308 308.948 326.928 310.028 326.038 309.868C325.388 308.728 327.538 305.538 325.548 305.948V308.398L324.568 306.928L323.588 308.888L324.568 301.528V303.978L325.548 302.018L327.018 302.508V300.058L327.518 303.488C328.288 303.688 327.808 302.908 328.168 302.668C328.528 302.428 329.238 302.598 329.388 302.448C329.668 302.168 329.388 300.288 329.928 299.388C330.418 298.558 331.708 299.068 331.958 298.838C332.798 298.048 332.368 296.248 332.428 295.148C332.428 295.178 332.868 295.018 332.938 295.438C333.128 296.558 332.328 298.918 333.408 299.568C332.818 296.368 334.198 297.608 334.878 296.748C335.258 296.268 335.738 294.758 336.848 294.168C338.348 293.108 337.398 294.678 338.318 294.658C338.348 292.408 340.668 293.308 340.748 293.158C340.918 292.838 340.478 292.028 341.088 291.688C341.838 291.278 344.118 291.338 344.908 290.778C345.388 290.438 344.958 289.538 345.518 289.238C347.288 288.298 352.478 288.608 351.588 285.328C352.028 285.168 352.568 287.178 352.568 287.288V287.278Z" fill="#7D746C"/>
    <path d="M219.938 275.979C219.068 275.869 219.478 277.089 219.448 277.689C219.018 286.469 219.218 295.199 219.448 303.979L218.468 303.249L218.958 273.029C216.998 272.509 218.848 275.359 217.248 274.989C216.628 274.849 217.228 273.599 217.478 273.259L216.508 273.019V274.989L215.038 274.499V276.949L214.538 274.499L213.798 274.979L213.078 280.389C213.058 279.179 212.768 272.329 213.078 272.039C213.588 271.559 215.788 271.989 215.038 273.519C216.408 273.799 215.998 273.019 216.018 272.039C218.568 273.159 222.798 271.929 225.028 272.519C225.428 272.629 225.388 273.179 225.348 273.509H225.828C224.998 271.849 230.528 272.839 230.708 273.059C231.108 273.519 231.108 276.979 229.268 275.979C229.858 280.529 229.838 285.349 229.788 289.979C229.738 294.889 229.498 299.799 229.268 304.729C229.238 305.329 229.648 306.549 228.778 306.439V276.479L228.098 280.839C227.778 284.979 228.598 289.879 228.288 293.919C228.238 294.499 228.138 296.119 227.308 296.129V276.729C227.308 276.599 228.258 276.249 227.308 275.739C226.058 275.079 226.758 279.309 226.788 280.159C226.828 281.149 226.818 280.929 225.838 280.899L225.348 275.989C225.218 279.129 225.538 282.779 225.028 285.849C224.938 286.399 225.128 287.409 224.358 287.289V275.009C223.488 274.899 223.898 276.119 223.868 276.719C223.758 278.909 223.978 282.369 223.568 284.379C223.458 284.939 223.648 285.939 222.878 285.819V275.999C221.458 276.419 223.548 279.939 221.408 279.439L220.918 275.019C221.528 279.369 219.548 283.909 220.918 288.039L219.948 288.279V275.979H219.938Z" fill="#B9B2AD"/>
    <path d="M333.408 263.209C334.838 262.389 335.438 261.869 337.338 262.229L336.358 263.199C338.828 262.749 341.268 262.959 343.728 263.199C343.318 264.719 345.398 263.979 345.578 264.889C345.638 265.189 345.108 270.519 344.938 271.039C344.558 272.149 341.838 275.279 340.748 275.739C339.858 276.109 339.168 275.559 338.298 275.699C337.428 275.839 336.108 276.969 335.378 276.229L336.358 274.509L334.398 274.999L336.358 273.519C335.858 272.409 334.018 272.299 334.388 270.829C334.418 270.699 337.218 269.679 334.388 269.849V267.639C333.708 267.379 333.938 269.639 332.918 268.619C332.848 268.549 333.648 267.249 333.418 266.659L334.388 267.149V265.669C332.268 266.639 333.678 265.149 334.878 264.199C333.228 263.789 332.298 266.029 331.188 265.679C331.038 265.629 330.788 263.749 329.968 264.679C329.748 264.939 330.448 266.309 329.478 266.159V263.219L330.698 264.209L331.428 263.219C331.408 265.339 332.558 263.699 333.398 263.219L333.408 263.209Z" fill="#A59E97"/>
    <path d="M225.838 281.388C227.468 281.208 226.538 281.678 226.628 282.298C227.388 287.198 226.008 293.108 226.498 298.138L225.828 299.568V281.398L225.838 281.388Z" fill="#B9B2AD"/>
    <path d="M350.108 276.469C348.958 274.379 349.578 273.258 348.158 272.198V265.168C349.358 268.328 349.928 273.059 350.108 276.469Z" fill="#A59E97"/>
    <path d="M353.548 287.769C353.518 288.259 353.598 288.759 353.548 289.239C353.448 290.119 353.418 291.188 353.308 291.938C353.168 292.918 351.658 292.908 353.548 293.418L351.588 294.158C351.788 292.378 352.548 289.239 352.568 287.769H353.548Z" fill="#BCB6B1"/>
    <path d="M221.408 279.909C223.528 279.679 221.938 283.569 221.888 284.599C221.838 285.709 222.868 288.039 221.408 288.749V279.909Z" fill="#B9B2AD"/>
    <path d="M354.528 259.779C354.528 260.489 351.738 261.369 351.588 261.249C350.458 260.269 354.158 259.679 354.528 259.779Z" fill="#B9B3AD"/>
    <path d="M310.318 310.859H309.828C309.928 310.199 310.028 309.509 310.808 309.389V310.609L310.318 310.859Z" fill="#A09992"/>
    <path d="M242.538 285.809C244.678 285.549 242.698 289.469 243.528 290.719C244.978 290.189 242.808 286.319 244.998 286.799C244.528 290.119 245.248 294.509 244.858 297.659C244.778 298.309 244.918 298.919 244.018 299.079V291.219C242.468 291.819 243.588 294.079 243.308 295.289L242.548 300.059V285.809H242.538Z" fill="#E3E0DD"/>
    <path d="M240.078 302.998C241.908 303.408 240.768 300.608 241.058 299.568C241.818 299.568 241.748 301.708 241.758 302.268C241.788 303.408 241.328 304.728 241.538 305.948L241.048 303.498L239.588 304.968C239.758 299.168 239.378 293.298 239.568 287.518C239.608 286.388 239.398 283.798 240.568 283.358L240.088 303.008L240.078 302.998Z" fill="#E3E0DD"/>
    <path d="M249.898 291.209C250.018 291.059 250.908 290.719 250.748 291.839C250.338 294.739 250.368 298.739 250.358 301.739C250.358 308.149 250.648 314.479 250.378 320.929C250.348 321.529 250.748 322.749 249.888 322.639V291.199H249.898V291.209Z" fill="#E3E0DD"/>
    <path d="M238.118 295.629C239.428 295.429 239.108 295.859 239.118 296.869C239.198 302.179 238.618 307.529 238.898 312.839L238.118 314.299V295.629Z" fill="#E3E0DD"/>
    <path d="M236.638 299.558C238.308 299.418 237.298 299.779 237.348 300.379C237.648 304.279 238.088 310.878 237.618 314.548C237.508 315.448 237.788 315.338 236.638 315.278V299.558Z" fill="#E3E0DD"/>
    <path d="M252.848 293.179C253.958 293.429 253.478 293.969 253.518 294.569C254.018 302.079 252.858 310.089 253.338 317.739L252.368 317.509C252.818 316.719 252.848 315.439 252.848 314.549V293.179Z" fill="#E3E0DD"/>
    <path d="M239.098 280.399V292.429C239.098 293.219 239.148 294.899 238.118 295.129C238.588 290.759 237.748 285.359 238.138 281.129C238.218 280.219 237.908 280.329 239.098 280.389V280.399Z" fill="#E3E0DD"/>
    <path d="M256.288 307.909C254.828 307.389 257.008 303.499 254.818 303.979C254.778 305.199 254.868 306.439 254.818 307.669C254.788 308.269 255.188 309.489 254.328 309.379V297.099C255.078 297.019 254.998 298.959 255.018 299.489C255.058 300.659 253.958 303.879 255.808 303.479V295.619H256.298V307.899L256.288 307.909Z" fill="#E3E0DD"/>
    <path d="M239.588 307.418C240.558 307.588 240.238 308.149 240.318 308.729C240.578 310.509 240.478 313.338 240.418 315.208C240.378 316.568 240.778 319.478 239.588 320.198V307.428V307.418Z" fill="#E3E0DD"/>
    <path d="M245.478 300.539C247.428 300.159 246.108 302.839 246.158 303.819C246.248 305.829 247.428 309.459 245.478 310.859V300.539Z" fill="#E3E0DD"/>
    <path d="M244.008 309.879V299.559C244.788 299.489 244.808 301.089 244.848 301.589C244.948 302.999 245.028 307.009 244.898 308.299C244.828 309.009 244.948 309.679 244.008 309.869V309.879Z" fill="#E3E0DD"/>
    <path d="M242.538 310.859V300.539C243.428 300.439 242.968 301.649 243.018 302.259C243.178 304.339 243.528 307.389 243.328 309.389C243.258 310.049 243.538 310.649 242.528 310.859H242.538Z" fill="#E3E0DD"/>
    <path d="M248.428 306.438C248.538 306.288 249.438 305.948 249.278 307.068C248.828 310.218 249.218 312.848 249.118 315.828C249.098 316.298 249.118 317.388 248.428 317.238V306.428V306.438Z" fill="#E3E0DD"/>
    <path d="M246.958 309.879C248.758 309.509 247.358 311.379 247.408 312.579C247.468 314.059 247.728 315.999 247.878 317.539C247.968 318.529 247.918 318.229 246.968 318.229V309.879H246.958Z" fill="#E3E0DD"/>
    <path d="M239.098 314.788C238.558 316.478 239.168 318.239 238.898 319.859C238.818 320.339 238.808 321.298 238.118 321.168C238.188 319.458 237.998 317.709 238.118 316.009C238.178 315.029 237.728 314.588 239.098 314.788Z" fill="#E3E0DD"/>
    <path d="M244.988 319.209C245.148 319.409 244.858 323.678 244.808 324.288C244.768 324.738 244.688 325.719 244.018 325.589C244.168 323.789 243.788 321.688 244.018 319.928C244.108 319.208 244.388 318.409 244.998 319.199L244.988 319.209Z" fill="#E3E0DD"/>
    <path d="M246.458 311.349C245.668 313.109 247.198 315.979 245.478 317.239C245.538 315.699 245.368 314.109 245.478 312.569C245.538 311.589 245.088 311.149 246.458 311.349Z" fill="#E3E0DD"/>
    <path d="M247.938 326.568C245.678 326.618 245.158 327.129 245.488 324.609L246.958 326.078V321.168L247.938 326.568Z" fill="#E3E0DD"/>
    <path d="M252.358 297.109C251.948 298.829 251.648 301.059 252.358 302.769L251.388 302.999C251.458 301.459 251.288 299.869 251.388 298.329C251.448 297.349 250.998 296.909 252.368 297.109H252.358Z" fill="#E3E0DD"/>
    <path d="M241.548 299.069C240.688 299.179 241.088 297.949 241.058 297.359C240.998 295.969 241.098 294.569 241.058 293.179C242.798 294.299 241.268 297.409 241.538 299.069H241.548Z" fill="#E3E0DD"/>
    <path d="M236.148 318.719C235.028 320.189 234.598 315.239 235.908 314.799L236.148 318.719Z" fill="#E3E0DD"/>
    <path d="M246.958 307.419C246.988 306.029 246.898 304.629 246.958 303.239C246.978 302.639 246.588 301.409 247.448 301.529C246.798 303.359 248.898 306.399 246.968 307.419H246.958Z" fill="#E3E0DD"/>
    <path d="M247.938 293.669C247.418 295.039 247.718 296.369 247.678 297.759C247.658 298.419 248.588 298.709 246.968 298.579C247.388 297.519 245.938 293.439 247.948 293.669H247.938Z" fill="#E3E0DD"/>
    <path d="M240.568 280.398C239.198 280.598 239.648 280.168 239.588 279.178C239.498 277.798 239.648 276.379 239.588 274.999L240.568 280.398Z" fill="#E3E0DD"/>
    <path d="M252.368 322.158L253.338 318.229C253.008 319.389 253.768 321.588 252.368 322.158Z" fill="#E3E0DD"/>
    <path d="M246.458 296.619L245.488 300.059C245.758 299.019 244.638 296.219 246.458 296.619Z" fill="#E3E0DD"/>
    <path d="M242.038 314.788C242.168 314.948 241.938 318.738 241.058 318.708C240.938 318.408 240.818 313.208 242.038 314.788Z" fill="#E3E0DD"/>
    <path d="M244.988 310.369C244.328 311.339 245.828 314.229 244.008 313.799C244.308 312.889 243.128 309.989 244.988 310.369Z" fill="#E3E0DD"/>
    <path d="M251.858 309.379C250.998 309.489 251.398 308.268 251.368 307.668C251.318 306.448 251.398 305.198 251.368 303.978C252.118 303.898 252.028 305.829 252.048 306.369C252.088 307.369 251.778 308.369 251.848 309.379H251.858Z" fill="#E3E0DD"/>
    <path d="M248.918 299.558L248.438 294.648C250.038 295.398 248.388 298.108 248.918 299.558Z" fill="#E3E0DD"/>
    <path d="M246.458 320.198C245.758 321.288 246.778 323.609 245.478 324.119C245.818 323.169 244.538 319.838 246.458 320.198Z" fill="#E3E0DD"/>
    <path d="M234.678 323.139C234.018 324.109 235.538 326.489 233.698 326.079C233.918 325.059 232.918 322.729 234.678 323.139Z" fill="#E3E0DD"/>
    <path d="M242.038 289.249C241.418 290.349 242.528 292.168 241.058 292.678L242.038 289.249Z" fill="#E3E0DD"/>
    <path d="M242.038 306.438C241.418 307.538 242.528 309.359 241.058 309.869L242.038 306.438Z" fill="#E3E0DD"/>
    <path d="M260.718 326.089L261.198 322.159C260.848 323.469 262.448 325.449 260.718 326.089Z" fill="#E3E0DD"/>
    <path d="M263.168 325.599L260.718 327.559C260.558 326.619 261.678 327.359 262.128 326.989C262.508 326.679 261.568 325.179 263.168 325.599Z" fill="#E3E0DD"/>
    <path d="M251.858 318.719C250.268 318.139 251.808 316.039 251.378 314.789L251.858 318.719Z" fill="#E3E0DD"/>
    <path d="M254.808 313.799C253.698 313.369 254.598 310.849 254.328 309.879C255.438 310.309 254.538 312.829 254.808 313.799Z" fill="#E3E0DD"/>
    <path d="M237.618 315.769H236.638V317.729H237.618V315.769Z" fill="#E3E0DD"/>
    <path d="M248.918 321.659C247.808 321.229 248.708 318.709 248.438 317.739C249.548 318.169 248.648 320.689 248.918 321.659Z" fill="#E3E0DD"/>
    <path d="M234.678 318.229H233.698V320.188H234.678V318.229Z" fill="#E3E0DD"/>
    <path d="M234.678 320.688H233.698V322.648H234.678V320.688Z" fill="#E3E0DD"/>
    <path d="M248.918 302.509H248.438V305.939H248.918V302.509Z" fill="#E3E0DD"/>
    <path d="M242.038 310.369C242.168 311.289 242.038 312.069 241.068 312.329V310.369H242.038Z" fill="#E3E0DD"/>
    <path d="M254.808 316.259H253.828C253.708 315.349 253.808 314.829 254.568 314.299L254.808 316.259Z" fill="#E3E0DD"/>
    <path d="M244.988 316.759C245.118 317.679 244.988 318.459 244.018 318.719V316.759H244.988Z" fill="#E3E0DD"/>
    <path d="M254.808 318.719H253.828C253.708 317.809 253.808 317.289 254.568 316.759L254.808 318.719Z" fill="#E3E0DD"/>
    <path d="M237.618 318.229C237.748 319.149 237.618 319.928 236.648 320.188V318.229H237.618Z" fill="#E3E0DD"/>
    <path d="M251.868 321.168H250.888C250.768 320.258 250.868 319.738 251.628 319.208L251.868 321.168Z" fill="#E3E0DD"/>
    <path d="M254.808 321.668C254.938 322.588 254.808 323.369 253.838 323.629V321.668H254.808Z" fill="#E3E0DD"/>
    <path d="M248.918 322.159H248.438V325.589H248.918V322.159Z" fill="#E3E0DD"/>
    <path d="M261.688 329.039C260.418 328.989 259.398 329.529 259.728 328.059H261.688V329.039Z" fill="#E3E0DD"/>
    <path d="M256.288 313.318H255.308V314.788H256.288V313.318Z" fill="#E3E0DD"/>
    <path d="M244.988 314.299C245.258 314.569 244.278 316.849 244.008 316.259V314.299H244.988Z" fill="#E3E0DD"/>
    <path d="M312.288 319.698L310.818 319.458L312.278 318.229L312.288 319.698Z" fill="#A09992"/>
    <path d="M279.378 324.609L277.908 324.369L279.368 323.139L279.378 324.609Z" fill="#E3E0DD"/>
    <path d="M260.218 327.078V327.558L258.258 328.048V327.068L260.218 327.078Z" fill="#E3E0DD"/>
    <path d="M267.088 323.139H266.108C265.948 322.419 266.328 322.118 266.848 321.668L267.088 323.139Z" fill="#E3E0DD"/>
    <path d="M254.808 319.699C254.958 320.379 254.548 321.009 253.828 321.169V319.699H254.808Z" fill="#E3E0DD"/>
    <path d="M245.968 319.699H245.488V317.739C246.818 318.179 246.198 318.659 245.968 319.699Z" fill="#E3E0DD"/>
    <path d="M237.618 284.819H236.638C236.478 284.099 236.858 283.799 237.378 283.349L237.618 284.819Z" fill="#E3E0DD"/>
    <path d="M310.808 316.748H309.828C309.668 316.028 310.048 315.728 310.568 315.278L310.808 316.748Z" fill="#A09992"/>
    <path d="M242.038 312.829C242.188 313.509 241.778 314.139 241.058 314.299V312.829H242.038Z" fill="#E3E0DD"/>
    <path d="M341.268 312.819C340.578 312.819 339.498 313.069 339.308 312.329L341.268 311.839C341.308 312.159 341.228 312.509 341.268 312.819Z" fill="#A09992"/>
    <path d="M237.618 294.648C237.768 295.328 237.358 295.959 236.638 296.119V294.648H237.618Z" fill="#E3E0DD"/>
    <path d="M246.458 296.119H245.478V294.648C246.188 294.818 246.608 295.439 246.458 296.119Z" fill="#E3E0DD"/>
    <path d="M237.618 298.089H236.638C236.478 297.369 236.858 297.069 237.378 296.619L237.618 298.089Z" fill="#E3E0DD"/>
    <path d="M237.618 282.859H236.638C236.478 282.139 236.858 281.839 237.378 281.389L237.618 282.859Z" fill="#E3E0DD"/>
    <path d="M273.968 322.159C274.118 322.839 273.708 323.469 272.988 323.629V322.159H273.968Z" fill="#E3E0DD"/>
    <path d="M379.088 269.589C378.348 269.039 376.618 272.439 376.648 270.329C376.648 270.219 377.358 269.819 377.418 269.359C377.518 268.539 376.308 267.489 376.868 266.639C378.168 264.659 377.998 266.969 377.938 267.989C377.898 268.709 377.108 269.259 378.358 269.089C379.498 268.269 378.288 267.379 378.838 266.159C379.168 265.419 383.038 262.049 383.888 261.829C386.988 261.029 387.438 264.429 386.838 266.759C386.148 269.399 379.208 276.279 379.098 269.579L379.088 269.589Z" fill="#B9B3AD"/>
    <path d="M366.808 273.528C366.718 274.158 365.078 274.728 364.538 274.928C363.838 275.188 363.248 275.659 362.398 275.479C363.228 274.229 365.398 273.579 366.818 273.519L366.808 273.528Z" fill="#B9B3AD"/>
    <path d="M362.388 280.409C362.108 281.239 360.238 281.759 359.448 281.869C359.868 280.759 361.278 280.349 362.388 280.409Z" fill="#B9B3AD"/>
    <path d="M363.858 277.949V278.929H361.898C362.158 277.949 362.948 277.829 363.858 277.959V277.949Z" fill="#B9B3AD"/>
    <path d="M357.968 284.329L359.928 283.839C359.658 285.309 358.128 284.769 357.968 284.819V284.329Z" fill="#8B827A"/>
    <path d="M372.708 269.109C373.218 269.349 371.388 270.279 370.748 270.079C370.988 269.139 371.838 268.969 372.708 269.109Z" fill="#B9B3AD"/>
    <path d="M369.268 285.808C369.898 286.098 367.488 287.008 366.818 286.778C366.188 286.488 368.598 285.578 369.268 285.808Z" fill="#766E66"/>
    <path d="M372.708 285.808C373.338 286.098 370.928 287.008 370.258 286.778C369.628 286.488 372.038 285.578 372.708 285.808Z" fill="#766E66"/>
    <path d="M374.668 286.298C374.428 287.238 373.578 287.409 372.708 287.269C372.198 287.029 374.028 286.098 374.668 286.298Z" fill="#766E66"/>
    <path d="M375.658 282.369C375.418 283.309 374.568 283.479 373.698 283.339C373.188 283.099 375.018 282.169 375.658 282.369Z" fill="#A8A099"/>
    <path d="M120.708 287.279C120.168 287.739 117.958 285.739 118.258 284.829C118.438 284.629 120.908 287.109 120.708 287.279Z" fill="#E3E0DD"/>
    <path d="M358.948 304.969V305.449C357.618 305.419 356.148 306.779 356.498 304.969H358.948Z" fill="#8B827A"/>
    <path d="M362.878 303.499C363.508 303.789 361.098 304.699 360.428 304.469C359.798 304.179 362.208 303.269 362.878 303.499Z" fill="#8B827A"/>
    <path d="M344.708 311.849C344.618 312.529 341.888 313.939 341.768 313.809C340.898 312.929 344.298 311.749 344.708 311.849Z" fill="#A09992"/>
    <path d="M286.738 325.099H284.778V324.619L286.738 324.119V325.099Z" fill="#B9B2AD"/>
    <path d="M312.778 299.069C311.918 299.179 312.318 297.959 312.288 297.359C312.238 296.139 312.318 294.889 312.288 293.669C313.148 293.559 312.748 294.779 312.778 295.379C312.828 296.599 312.748 297.849 312.778 299.069Z" fill="#A09992"/>
    <path d="M327.018 315.278C325.908 314.848 326.808 312.328 326.538 311.358C327.648 311.788 326.748 314.308 327.018 315.278Z" fill="#B9B2AD"/>
    <path d="M328.988 295.139C329.118 296.059 328.988 296.839 328.018 297.099V295.139H328.988Z" fill="#BCB6B1"/>
    <path d="M335.368 266.648H334.888V269.099H335.368V266.648Z" fill="#BCB6B1"/>
</svg>
