<svg width="500" height="500" viewBox="0 0 500 500" fill="none" xmlns="http://www.w3.org/2000/svg">
<path d="M244.182 22.1236C347.312 18.7636 439.932 84.2137 469.732 182.774C514.162 329.704 407.562 475.654 254.842 478.264C135.822 480.304 33.9221 391.004 23.0221 272.014C10.7621 138.074 110.232 26.4936 244.182 22.1236Z" fill="#DF0505"/>
<path d="M221.442 121.914L280.982 121.854C289.922 124.494 287.962 132.444 287.632 139.644C286.942 154.614 285.482 169.544 284.432 184.494C282.332 214.474 281.392 246.064 278.022 275.794C277.122 283.744 275.122 289.014 266.232 289.634C258.102 290.204 239.862 290.514 232.212 289.184C223.552 287.674 223.722 275.714 223.172 268.994C222.262 257.814 221.952 246.554 221.162 235.364C218.902 203.384 215.902 171.264 214.362 139.244C214.022 132.134 212.962 124.444 221.462 121.924H221.442V121.914Z" fill="white"/>
<path d="M247.092 304.144C275.022 301.444 295.502 329.454 285.122 355.394C274.802 381.174 240.502 386.564 222.542 365.304C203.432 342.694 217.742 306.984 247.092 304.144Z" fill="white"/>
<path d="M346.852 121.914L406.392 121.854C415.332 124.494 413.372 132.444 413.042 139.644C412.352 154.614 410.892 169.544 409.842 184.494C407.742 214.474 406.802 246.064 403.432 275.794C402.532 283.744 400.532 289.014 391.642 289.634C383.512 290.204 365.272 290.514 357.622 289.184C348.962 287.674 349.132 275.714 348.582 268.994C347.672 257.814 347.362 246.554 346.572 235.364C344.312 203.384 341.312 171.264 339.772 139.244C339.432 132.134 338.372 124.444 346.872 121.924H346.852V121.914Z" fill="white"/>
<path d="M372.502 304.144C400.432 301.444 420.912 329.454 410.532 355.394C400.212 381.174 365.912 386.564 347.952 365.304C328.842 342.694 343.152 306.984 372.502 304.144Z" fill="white"/>
<path d="M96.0324 121.914L155.572 121.854C164.512 124.494 162.552 132.444 162.222 139.644C161.532 154.614 160.072 169.544 159.022 184.494C156.922 214.474 155.982 246.064 152.612 275.794C151.712 283.744 149.712 289.014 140.822 289.634C132.692 290.204 114.452 290.514 106.802 289.184C98.1424 287.674 98.3124 275.714 97.7624 268.994C96.8524 257.814 96.5421 246.554 95.7521 235.364C93.4921 203.384 90.4923 171.264 88.9523 139.244C88.6123 132.134 87.5524 124.444 96.0524 121.924H96.0324V121.914Z" fill="white"/>
<path d="M121.682 304.144C149.612 301.444 170.092 329.454 159.712 355.394C149.392 381.174 115.092 386.564 97.1318 365.304C78.0218 342.694 92.332 306.984 121.682 304.144Z" fill="white"/>
</svg>
