<svg width="500" height="500" viewBox="0 0 500 500" fill="none" xmlns="http://www.w3.org/2000/svg">
<path d="M241.277 24.1714C376.237 19.0114 485.277 131.022 475.687 265.942C467.717 378.172 376.017 468.391 263.747 474.981C148.647 481.731 43.4971 399.941 25.8071 285.511C4.78707 149.491 104.297 29.4014 241.277 24.1614V24.1714Z" fill="#010101"/>
<path d="M408.147 197.352C385.567 121.332 315.897 74.6216 236.937 78.7716C178.127 81.8616 123.977 121.152 99.5973 173.962C54.6173 271.362 112.367 386.932 217.167 408.122C339.197 432.792 443.377 315.962 408.147 197.362V197.352ZM254.187 93.9715C283.557 94.6815 312.297 104.782 336.197 121.512C373.827 147.852 398.227 191.782 399.377 238.042H331.447C330.957 205.172 319.607 171.432 291.997 151.892C281.087 144.172 267.547 139.382 254.187 138.382V93.9615V93.9715ZM244.697 149.202C244.917 149.482 244.487 149.672 244.487 149.762V161.892H253.817L254.187 148.822C271.247 150.182 286.517 157.572 298.047 170.092C314.907 188.402 320.887 212.692 322.127 237.092L321.567 237.662L307.557 238.032V247.362H321.367C319.367 264.192 314.087 281.392 302.697 294.222L301.957 294.242L281.797 284.502C275.257 281.692 274.557 275.212 274.347 268.812C274.197 264.282 276.697 261.922 278.177 257.722C279.247 254.682 280.187 251.342 280.317 248.102C287.187 248.192 290.687 237.112 291.137 231.492C291.487 227.012 291.687 216.602 284.797 218.242C285.817 214.162 285.767 209.232 285.557 204.982C284.407 181.562 269.967 167.602 246.147 168.592C222.217 169.582 211.037 189.962 212.377 212.102C212.497 214.152 213.077 216.372 213.887 218.242C205.527 216.262 206.697 229.632 207.707 234.692C208.527 238.782 211.967 246.402 216.117 247.932C216.667 248.132 217.917 248.052 217.987 248.112C218.157 248.272 218.527 251.822 218.767 252.742C219.247 254.552 219.937 256.622 220.597 258.372C222.427 263.212 224.257 264.292 223.957 269.932C223.537 278.002 222.607 281.032 215.397 284.882C209.147 288.222 202.327 290.742 196.007 293.982C193.387 290.402 190.617 286.952 188.437 283.062C182.297 272.092 179.197 259.782 177.677 247.352H191.117V237.652H176.937C176.807 206.932 190.067 171.622 217.987 156.092C224.807 152.302 235.757 148.852 243.577 148.812C244.047 148.812 244.387 148.772 244.707 149.202H244.697ZM129.217 153.572C155.207 118.522 200.397 93.8815 244.477 93.9715V138.012C213.377 139.522 188.247 163.002 176.747 190.652C170.607 205.402 167.187 221.622 167.597 237.672L99.6673 238.042C100.207 207.712 111.277 177.772 129.227 153.572H129.217ZM244.477 395.922C226.887 395.982 209.527 391.412 193.357 384.902C138.267 362.722 99.5773 307.172 99.2873 247.372H167.967C169.067 265.612 175.477 283.492 186.617 297.952C179.477 301.142 172.137 303.602 166.097 308.772C153.357 319.662 153.567 337.162 153.037 352.632C175.847 352.162 198.747 353.252 221.547 352.642C222.427 352.622 223.247 352.262 224.127 352.242C230.927 352.042 237.677 351.792 244.487 351.512V395.932L244.477 395.922ZM361.117 345.532C333.357 375.842 295.757 394.842 254.177 396.292C254.177 381.372 254.197 366.422 254.177 351.502C251.197 351.442 248.197 351.542 245.217 351.502V331.352C231.127 331.032 217.987 325.152 206.817 316.942C203.157 314.252 198.927 311.062 196.697 307.092C197.477 306.982 198.107 307.142 198.837 307.382C202.117 308.442 207.597 312.452 211.007 314.252C221.687 319.852 232.957 324.622 245.227 325.012V303.742H254.187V325.012C265.097 324.392 275.207 320.862 284.797 315.872C289.307 313.532 294.047 309.922 298.457 307.882C298.997 307.632 301.387 306.402 301.217 307.652C300.947 309.612 293.737 315.522 291.847 316.952C280.937 325.242 267.717 331.092 253.807 331.352C254.447 338.012 254.167 344.802 254.177 351.502C263.337 351.672 272.487 352.432 281.597 352.642C302.667 353.112 323.807 352.262 344.877 352.632C344.277 337.942 346.307 323.422 335.557 311.752C329.117 304.762 320.337 302.162 312.047 298.332C323.087 283.472 329.497 265.882 331.077 247.382H399.757C398.887 283.302 385.387 319.072 361.137 345.552L361.117 345.532Z" fill="white"/>
</svg>
