<svg width="500" height="500" viewBox="0 0 500 500" fill="none" xmlns="http://www.w3.org/2000/svg">
    <path d="M445.788 167.402C445.188 159.692 445.998 150.942 445.318 143.372C445.118 141.112 444.658 138.532 442.558 137.282C441.938 136.912 440.548 136.772 440.468 136.682C440.128 136.292 440.928 132.532 439.428 131.092C437.818 129.532 432.418 130.772 430.168 130.282C428.958 123.002 424.738 115.012 416.598 114.132C414.748 113.932 407.538 113.872 406.258 114.602C404.838 115.412 401.508 120.822 400.428 122.532C399.598 123.842 396.918 129.462 396.468 129.862C396.168 130.132 395.918 130.352 395.478 130.352C340.788 130.372 286.088 130.132 231.448 130.872C231.098 130.812 231.318 126.432 226.998 125.922H146.178C146.528 117.852 140.698 114.442 133.148 115.112C125.798 115.762 128.268 121.982 125.998 127.362C115.848 127.242 111.658 136.752 107.138 144.072C101.668 140.252 91.3183 131.192 84.2783 133.042C82.4183 133.532 80.3683 135.702 79.9883 137.592C78.6883 143.912 85.6983 145.142 89.4483 148.052C92.7083 150.592 98.8582 158.602 97.8482 162.782C97.1382 165.732 91.3583 175.272 89.1983 177.742C81.5683 186.492 75.8183 186.072 65.7083 188.632C60.9683 189.832 56.9083 194.542 60.4583 199.142C63.0783 202.552 71.3683 201.562 75.6483 202.132C101.588 205.582 107.478 223.372 97.6582 246.122C84.3982 276.822 65.2683 303.072 57.6283 336.752C55.4183 346.512 51.1682 362.662 56.7882 371.302C58.0182 373.192 62.2383 376.482 62.4583 376.932C62.9183 377.892 62.5483 379.032 62.8183 380.012C63.9283 383.982 64.9383 385.412 69.3083 385.802H166.118C180.728 382.352 168.928 371.772 166.698 364.552C164.058 356.012 167.778 345.572 170.028 337.152C174.428 320.702 179.338 303.412 184.388 287.162C188.178 274.962 190.558 264.032 206.368 265.442C211.078 265.862 214.148 268.252 218.278 269.742C227.668 273.112 241.408 272.722 251.538 272.822C272.438 273.032 293.948 271.962 301.558 248.622C306.778 232.622 300.008 206.572 323.258 204.992C356.638 202.722 393.248 206.162 426.928 205.402C433.238 205.262 439.548 202.322 440.378 195.372C441.248 188.072 439.868 179.362 440.398 171.902C440.508 171.502 445.238 170.972 445.808 167.402H445.788ZM106.158 358.772C99.2482 358.402 98.6883 348.352 104.278 347.072C114.568 344.712 115.288 359.262 106.158 358.772ZM202.458 141.332L202.588 142.452L193.718 169.972C193.198 172.172 188.888 171.372 188.998 169.692L197.878 140.982C198.758 139.932 201.458 140.502 202.468 141.332H202.458ZM189.748 141.332L189.878 142.452L181.008 169.972C180.488 172.172 176.178 171.372 176.288 169.692L185.168 140.982C186.048 139.932 188.748 140.502 189.758 141.332H189.748ZM177.038 141.332L177.168 142.452L168.298 169.972C167.778 172.172 163.468 171.372 163.578 169.692L172.458 140.982C173.338 139.932 176.038 140.502 177.048 141.332H177.038ZM164.328 141.332L164.458 142.452L155.588 169.972C155.068 172.172 150.758 171.372 150.868 169.692L159.748 140.982C160.628 139.932 163.328 140.502 164.338 141.332H164.328ZM147.028 140.982C147.908 139.932 150.608 140.502 151.618 141.332L151.748 142.452L142.878 169.972C142.358 172.172 138.048 171.372 138.158 169.692L147.038 140.982H147.028ZM134.318 140.982C135.198 139.932 137.898 140.502 138.908 141.332L139.038 142.452L130.168 169.972C129.648 172.172 125.338 171.372 125.448 169.692L134.328 140.982H134.318ZM270.558 261.352C261.798 262.872 236.408 262.902 227.698 261.282C199.278 256.002 199.028 219.192 225.208 210.942C225.158 213.912 232.788 218.612 233.068 219.602C233.258 220.272 232.518 226.072 232.618 227.872C233.198 237.972 238.388 247.962 247.368 252.912C250.378 254.572 257.998 257.702 260.898 255.122C265.798 250.762 256.608 248.312 254.088 246.682C243.248 239.672 242.378 225.392 247.138 214.352C247.698 213.062 248.788 210.162 250.078 209.922C265.178 210.772 284.268 205.362 292.258 222.272C300.248 239.182 288.388 258.272 270.568 261.362L270.558 261.352ZM431.138 184.372H124.318C123.188 184.052 122.768 180.592 123.158 179.432L431.298 179.452L431.148 184.372H431.138ZM433.778 151.952H231.148V143.112H433.748C433.748 143.112 433.808 151.952 433.768 151.952H433.778Z" fill="#191919"/>
</svg>
