<svg width="500" height="500" viewBox="0 0 500 500" fill="none" xmlns="http://www.w3.org/2000/svg">
<path d="M241.277 24.1714C376.237 19.0114 485.277 131.021 475.687 265.941C467.717 378.171 376.017 468.392 263.747 474.982C148.647 481.732 43.4971 399.941 25.8071 285.511C4.78707 149.491 104.297 29.4014 241.277 24.1614V24.1714Z" fill="#010101"/>
<path d="M207.437 165.901C209.137 151.671 207.167 136.441 202.727 122.541C201.067 117.341 197.847 111.561 196.577 106.481C195.307 101.401 200.497 95.7514 204.587 93.7014C231.777 80.0714 250.647 114.051 256.637 135.571C261.837 154.281 259.517 170.751 262.087 188.971C262.717 193.401 263.367 201.331 269.867 199.691C281.027 196.861 294.777 189.761 306.127 185.771C318.327 181.501 335.627 174.951 348.307 179.891C362.287 185.341 369.567 203.601 359.387 215.641L299.117 238.951C292.387 243.011 296.317 252.711 303.897 251.291C322.057 245.611 340.397 235.781 358.477 230.431C382.707 223.251 396.707 256.901 372.897 268.081C355.187 276.391 334.447 281.611 316.447 289.671C309.877 293.071 313.387 303.081 320.627 301.621L376.957 280.241C388.867 277.821 397.727 287.541 397.397 299.171C397.107 309.541 391.257 314.601 382.277 318.661C364.777 326.581 345.047 331.621 327.697 339.941C323.367 344.611 327.267 351.871 333.617 350.911C350.617 345.771 368.117 336.001 384.997 331.251C395.087 328.411 398.887 337.191 399.437 345.711C400.297 359.271 389.347 368.291 378.007 373.421C352.697 384.891 324.207 392.631 298.607 403.821C285.347 408.001 272.107 411.521 258.157 411.791C238.957 412.161 220.487 404.271 201.097 410.111C193.947 412.261 190.997 415.711 183.037 413.081C178.157 411.471 174.737 408.081 172.497 403.451C162.347 371.961 145.857 340.331 136.297 308.911C133.907 301.041 135.647 293.111 144.027 289.891C152.407 286.671 158.597 285.641 165.667 279.421C178.057 268.511 188.417 234.761 193.757 218.541C199.097 202.321 205.377 183.491 207.477 165.891H207.447L207.437 165.901Z" fill="#FFFFFE"/>
</svg>
