<svg width="500" height="500" viewBox="0 0 500 500" fill="none" xmlns="http://www.w3.org/2000/svg">
<path d="M478.902 22.0099H239.632V22.2899C107.482 28.4999 9.87185 139.27 22.0218 272.02C32.9218 391.01 134.822 480.31 253.842 478.27C379.252 476.13 473.532 377.33 478.652 260.7H478.892V22L478.902 22.0099Z" fill="#DF0505"/>
<path d="M220.443 121.92L279.982 121.86C288.922 124.5 286.963 132.45 286.633 139.65C285.943 154.62 284.482 169.55 283.432 184.5C281.332 214.48 280.392 246.07 277.022 275.8C276.122 283.75 274.122 289.02 265.232 289.64C257.102 290.21 238.863 290.52 231.213 289.19C222.553 287.68 222.723 275.72 222.173 269C221.263 257.82 220.952 246.56 220.162 235.37C217.902 203.39 214.902 171.27 213.362 139.25C213.022 132.14 211.963 124.45 220.463 121.93H220.443V121.92Z" fill="white"/>
<path d="M246.092 304.15C274.022 301.45 294.502 329.46 284.122 355.4C273.802 381.18 239.502 386.57 221.542 365.31C202.432 342.7 216.742 306.99 246.092 304.15Z" fill="white"/>
<path d="M345.852 121.92L405.392 121.86C414.332 124.5 412.372 132.45 412.042 139.65C411.352 154.62 409.892 169.55 408.842 184.5C406.742 214.48 405.802 246.07 402.432 275.8C401.532 283.75 399.532 289.02 390.642 289.64C382.512 290.21 364.272 290.52 356.622 289.19C347.962 287.68 348.132 275.72 347.582 269C346.672 257.82 346.362 246.56 345.572 235.37C343.312 203.39 340.312 171.27 338.772 139.25C338.432 132.14 337.372 124.45 345.872 121.93H345.852V121.92Z" fill="white"/>
<path d="M371.502 304.15C399.432 301.45 419.912 329.46 409.532 355.4C399.212 381.18 364.912 386.57 346.952 365.31C327.842 342.7 342.152 306.99 371.502 304.15Z" fill="white"/>
<path d="M95.0324 121.92L154.572 121.86C163.512 124.5 161.552 132.45 161.222 139.65C160.532 154.62 159.072 169.55 158.022 184.5C155.922 214.48 154.982 246.07 151.612 275.8C150.712 283.75 148.712 289.02 139.822 289.64C131.692 290.21 113.452 290.52 105.802 289.19C97.1424 287.68 97.3124 275.72 96.7624 269C95.8524 257.82 95.5421 246.56 94.7521 235.37C92.4921 203.39 89.4923 171.27 87.9523 139.25C87.6123 132.14 86.5524 124.45 95.0524 121.93H95.0324V121.92Z" fill="white"/>
<path d="M120.682 304.15C148.612 301.45 169.092 329.46 158.712 355.4C148.392 381.18 114.092 386.57 96.1324 365.31C77.0224 342.7 91.3322 306.99 120.682 304.15Z" fill="white"/>
</svg>
