<svg width="500" height="500" viewBox="0 0 500 500" fill="none" xmlns="http://www.w3.org/2000/svg">
<path d="M479.892 22H247.582V22.05C246.452 22.07 245.312 22.09 244.182 22.13C110.232 26.5 10.7621 138.08 23.0221 272.02C33.9221 391.01 135.822 480.31 254.842 478.27C380.852 476.12 475.452 376.37 479.732 259H479.902V22H479.892Z" fill="#0A0505"/>
<path d="M289.332 92.8503L362.362 92.7803C373.332 96.0203 370.922 105.77 370.522 114.6C369.672 132.96 367.882 151.28 366.592 169.61C364.012 206.38 362.862 245.13 358.732 281.6C357.632 291.35 355.172 297.82 344.272 298.58C334.302 299.28 311.922 299.66 302.542 298.03C291.922 296.18 292.132 281.51 291.452 273.26C290.332 259.55 289.952 245.73 288.982 232.01C286.212 192.78 282.532 153.38 280.642 114.11C280.222 105.39 278.922 95.9602 289.352 92.8702H289.332V92.8503Z" fill="white"/>
<path d="M320.792 316.37C355.052 313.06 380.172 347.42 367.442 379.23C354.782 410.85 312.712 417.46 290.682 391.39C267.242 363.66 284.792 319.85 320.792 316.37Z" fill="white"/>
<path d="M140.162 92.8503L213.192 92.7803C224.162 96.0203 221.752 105.77 221.352 114.6C220.502 132.96 218.712 151.28 217.422 169.61C214.842 206.38 213.691 245.13 209.561 281.6C208.461 291.35 206.002 297.82 195.102 298.58C185.132 299.28 162.752 299.66 153.372 298.03C142.752 296.18 142.962 281.51 142.282 273.26C141.162 259.55 140.781 245.73 139.811 232.01C137.041 192.78 133.362 153.38 131.472 114.11C131.052 105.39 129.752 95.9602 140.182 92.8702H140.162V92.8503Z" fill="white"/>
<path d="M171.632 316.37C205.892 313.06 231.012 347.42 218.282 379.23C205.622 410.85 163.552 417.46 141.522 391.39C118.082 363.66 135.632 319.85 171.632 316.37Z" fill="white"/>
</svg>
