<svg width="500" height="500" viewBox="0 0 500 500" fill="none" xmlns="http://www.w3.org/2000/svg">
<path d="M246.582 22V22.05C245.452 22.07 244.312 22.09 243.182 22.13C109.232 26.5 9.76209 138.08 22.0221 272.02C32.9221 391.01 134.822 480.31 253.842 478.27C379.852 476.12 474.452 376.37 478.732 259H478.902V22H246.592H246.582Z" fill="black"/>
<path d="M220.432 121.92L279.972 121.86C288.912 124.5 286.952 132.45 286.622 139.65C285.932 154.62 284.472 169.55 283.422 184.5C281.322 214.48 280.382 246.07 277.012 275.8C276.112 283.75 274.112 289.02 265.222 289.64C257.092 290.21 238.852 290.52 231.202 289.19C222.542 287.68 222.712 275.72 222.162 269C221.252 257.82 220.942 246.56 220.152 235.37C217.892 203.39 214.892 171.27 213.352 139.25C213.012 132.14 211.952 124.45 220.452 121.93H220.432V121.92Z" fill="white"/>
<path d="M246.082 304.14C274.012 301.44 294.492 329.45 284.112 355.39C273.792 381.17 239.492 386.56 221.532 365.3C202.422 342.69 216.732 306.98 246.082 304.14Z" fill="white"/>
</svg>
