<svg width="608" height="608" viewBox="0 0 608 608" fill="none" xmlns="http://www.w3.org/2000/svg">
<path d="M304 608C471.895 608 608 471.895 608 304C608 136.105 471.895 0 304 0C136.105 0 0 136.105 0 304C0 471.895 136.105 608 304 608Z" fill="url(#paint0_radial_279_2201)"/>
<mask id="mask0_279_2201" style="mask-type:luminance" maskUnits="userSpaceOnUse" x="27" y="27" width="554" height="554">
<path d="M304.179 580.526C456.901 580.526 580.706 456.721 580.706 304C580.706 151.278 456.901 27.4727 304.179 27.4727C151.458 27.4727 27.6523 151.278 27.6523 304C27.6523 456.721 151.458 580.526 304.179 580.526Z" fill="white"/>
</mask>
<g mask="url(#mask0_279_2201)">
<path d="M219.532 283.07C219.087 281.217 227.727 279.895 230.5 279.766C233.272 279.637 236.979 280.298 238.034 281.418C239.09 282.538 240.678 284.923 242.394 285.979C244.111 287.035 243.184 287.832 245.827 288.356C248.471 288.888 249.397 287.961 249.131 289.678C248.866 291.395 245.827 292.45 244.506 292.321C243.184 292.192 240.275 291.531 238.954 290.468C237.632 289.412 232.209 285.577 230.493 285.311C228.776 285.045 219.748 283.989 219.525 283.063L219.532 283.07Z" fill="white"/>
<path d="M273.322 297.742C273.401 298.676 270.283 299.064 268.567 299.33C266.85 299.596 260.903 300.386 260.106 301.046C259.309 301.707 256.27 303.424 255.085 303.029C253.893 302.634 252.176 300.975 252.047 300.414C251.918 299.854 252.442 296.421 253.103 295.365C253.764 294.309 254.69 293.117 256.141 293.253C257.592 293.383 259.316 294.029 260.372 293.246C261.427 292.463 262.483 291.824 263.546 292.341C264.602 292.858 273.063 294.711 273.329 297.75L273.322 297.742Z" fill="white"/>
<path d="M135.748 72.5993C144.295 73.7414 153.575 76.0469 158.747 78.3525C163.925 80.6509 174.275 76.6287 184.051 78.3525C193.826 80.0763 197.274 77.7779 201.878 82.3747C206.475 86.9716 212.228 89.2771 214.526 88.1279C216.824 86.9787 219.123 82.9493 220.854 85.2549C222.578 87.5533 221.428 100.209 212.802 104.231C204.176 108.253 197.274 108.828 197.274 115.73C197.274 122.633 201.87 123.207 206.474 125.506C211.071 127.804 213.951 132.983 219.123 134.132C224.301 135.281 230.622 132.408 234.077 141.034C237.525 149.661 244.427 151.959 243.278 146.788C242.128 141.609 240.405 138.161 247.3 132.99C254.202 127.811 251.322 123.789 247.3 118.611C243.278 113.432 243.278 108.261 247.875 105.962C252.471 103.664 265.702 101.94 267.425 105.962C269.149 109.984 273.179 118.036 278.925 119.185C284.678 120.334 284.836 109.654 288.7 111.069C292.844 112.584 291.451 121.965 292.844 125.096C294.238 128.221 305.004 129.269 307.439 134.132C309.874 138.995 309.177 145.811 309.874 149.531C310.571 153.245 310.915 156.024 309.874 158.459C308.833 160.894 309.529 164.37 314.047 165.757C318.565 167.15 318.22 169.578 314.047 170.971C309.874 172.364 302.928 171.316 302.577 167.15C302.232 162.977 299.452 159.508 295.624 159.508C291.796 159.508 278.594 159.853 277.208 162.287C275.815 164.722 276.166 166.805 280.684 166.805C285.202 166.805 286.244 171.093 284.857 171.553C283.464 172.013 281.381 174.792 283.119 175.489C284.857 176.186 298.605 170.626 300.939 172.709C303.273 174.792 300.149 180.007 295.286 182.09C290.424 184.173 282.078 192.519 278.953 190.429C275.829 188.346 286.947 181.738 282.774 182.09C278.601 182.434 266.097 187.62 265.4 190.759C264.703 193.905 270.959 198.423 267.835 200.85C264.71 203.285 256.019 200.154 254.978 204.327C253.937 208.5 256.716 217.183 249.419 224.481C242.121 231.778 230.651 236.993 230.651 242.897C230.651 248.801 234.127 256.795 234.127 259.927C234.127 263.058 232.734 268.962 230.651 269.307C228.568 269.652 227.871 267.224 225.092 266.527C222.312 265.831 221.967 260.968 220.229 257.147C218.491 253.326 220.574 247.07 213.628 246.718C206.676 246.373 202.855 246.373 201.813 248.456C200.772 250.539 203.896 253.671 199.033 253.671C194.171 253.671 191.391 251.236 188.604 254.015C185.825 256.795 178.872 259.927 177.486 263.748C176.1 267.569 173.665 275.563 177.141 282.86C180.617 290.158 177.838 288.772 178.879 291.199C179.921 293.634 187.57 297.455 190.695 298.497C193.819 299.538 199.385 295.02 198.337 290.854C197.295 286.681 203.896 284.254 206.331 284.254C208.766 284.254 210.504 288.075 210.152 290.165C209.8 292.255 204.937 301.283 204.593 305.112C204.248 308.933 208.414 309.974 215.022 312.064C221.622 314.147 221.278 314.844 221.278 320.403C221.278 325.963 219.647 336.04 226.542 335.695C233.438 335.35 241.087 338.475 243.867 338.13C246.646 337.785 252.206 327.011 255.337 327.701C258.462 328.397 256.034 335.343 259.855 335.695C263.676 336.04 271.325 330.48 279.664 333.957C288.003 337.433 296.342 338.13 298.777 341.599C301.212 345.075 303.295 351.676 307.116 353.414C310.937 355.152 321.366 353.759 325.884 357.235C330.402 360.712 331.443 372.872 339.782 376.348C348.121 379.824 358.55 382.259 365.151 384.687C371.751 387.122 384.615 389.549 383.567 399.282C382.525 409.014 380.787 414.229 376.269 419.436C371.751 424.65 371.751 426.733 376.269 438.901C380.787 451.061 377.311 456.275 374.186 459.751C371.062 463.228 362.716 469.828 355.074 471.567C347.431 473.305 344.3 475.74 342.217 478.519C340.134 481.299 338.044 489.638 340.134 494.156C342.217 498.673 342.569 501.453 340.479 503.888C338.396 506.323 333.526 509.799 328.663 510.489C323.801 511.185 319.283 514.662 318.586 518.483C317.89 522.304 316.503 529.953 309.206 533.43C301.909 536.906 297.046 536.209 295.308 538.989C293.57 541.768 291.832 549.418 294.266 552.887C296.701 556.363 297.391 561.226 294.266 563.661C291.142 566.096 288.01 568.179 288.01 571.303C288.01 574.427 287.314 577.904 284.886 578.256C282.451 578.6 273.071 589.374 268.898 588.685C264.725 587.988 263.683 582.084 265.077 579.304C266.47 576.525 267.856 573.393 266.815 569.227C265.773 565.054 265.077 562.275 264.38 558.798C263.683 555.322 262.987 554.625 263.338 549.066C263.683 543.507 265.077 537.595 266.118 531.691C267.16 525.78 267.512 514.662 267.16 506.323C266.815 497.984 268.201 497.632 268.553 489.99C268.898 482.348 269.25 471.919 269.25 466.007C269.25 460.096 271.685 454.537 266.815 451.412C261.952 448.288 246.661 447.591 236.584 435.424C226.507 423.264 219.554 422.912 220.947 409.359C222.341 395.805 226.858 394.067 229.286 388.853C231.721 383.638 234.501 374.258 234.501 368.699C234.501 363.139 237.625 360.36 237.28 357.58C236.936 354.8 233.107 346.11 229.983 342.633C226.858 339.157 221.644 337.074 217.126 336.377C212.608 335.681 207.746 329.425 203.228 322.824C198.71 316.223 194.537 316.223 190.019 316.223C185.502 316.223 182.025 310.664 176.811 309.27C171.596 307.877 164.995 305.794 159.084 303.014C153.173 300.235 150.393 298.152 146.228 290.503C142.054 282.86 139.627 266.872 137.537 263.051C135.454 259.23 131.625 244.283 128.156 243.242C124.68 242.2 120.859 238.724 120.162 241.848C119.465 244.973 120.507 253.319 123.287 256.443C126.066 259.567 128.149 264.085 129.198 266.52C130.239 268.955 129.895 272.776 127.46 270.341C125.025 267.906 119.817 258.871 117.727 257.484C115.644 256.091 111.127 251.925 108.692 243.931C106.257 235.937 106.257 227.598 104.519 225.163C102.781 222.728 101.739 219.252 97.566 215.086C93.3929 210.913 93.0482 204.657 94.7864 198.056C96.5245 191.456 95.598 177.55 93.8024 175.467C92.0067 173.384 86.8281 168.285 82.6264 165.735C80.407 164.392 81.47 161.009 82.6264 157.935C83.7828 154.861 85.6287 145.638 84.0916 137.953C82.5545 130.268 84.7093 121.045 79.4804 119.817C74.2515 118.589 69.9492 118.28 66.8751 115.824C63.801 113.367 58.2705 109.367 52.7327 109.984C47.2022 110.602 32.4421 109.367 29.9857 112.139C27.5293 114.904 21.0722 116.133 19.5351 118.905C17.9981 121.67 14.0046 124.134 9.6951 125.973C5.39277 127.819 -2.29252 131.201 -4.75612 128.738C-7.21973 126.274 -7.83024 120.744 -10.5955 119.207C-13.3608 117.67 -18.5897 118.898 -20.4356 114.904C-22.2815 110.911 -25.9661 112.139 -27.812 110.293C-29.6579 108.447 -25.6572 105.373 -21.6638 101.38C-17.6703 97.3862 -2.2997 91.8485 -5.68267 88.1638C-9.06563 84.472 -12.1398 88.7815 -14.905 87.855C-17.6703 86.9356 -22.2815 86.3179 -20.7444 83.5527C-19.2073 80.7874 -13.0591 78.0221 -10.2938 78.0221C-7.52858 78.0221 1.08326 78.6398 6.30495 76.1762C11.5338 73.7198 17.6821 70.028 21.6755 70.6457C25.669 71.2634 28.7431 75.2569 32.4349 72.1827C36.1268 69.1086 40.1202 63.8798 46.2685 64.4975C52.4167 65.1152 69.9349 64.4975 75.7814 66.9539C81.6208 69.4103 86.232 72.7933 92.9979 70.6457C99.7638 68.4909 128.286 71.6081 135.763 72.6065L135.748 72.5993Z" fill="white"/>
<path d="M564.53 98.8727C550.295 82.1303 530.622 77.1025 524.344 77.5263C518.067 77.9429 504.671 81.7137 500.484 85.9011C496.297 90.0885 486.248 94.2759 484.998 98.8799C483.742 103.484 481.651 104.741 479.138 107.671C476.624 110.602 472.86 113.116 477.047 116.463C481.235 119.81 487.929 120.234 488.769 123.997C489.61 127.768 490.026 130.698 495.471 131.115C500.915 131.532 500.491 137.816 505.935 134.886C511.38 131.955 515.984 128.608 513.886 124.421C511.789 120.234 510.539 113.539 509.283 109.769C508.026 105.998 505.095 105.165 508.442 102.651C511.789 100.137 513.046 97.6302 516.817 97.6302C520.588 97.6302 521.421 94.2831 523.094 98.8871C524.768 103.491 521.421 106.422 522.254 110.609C523.095 114.796 521.838 119.4 526.025 119.4C530.212 119.4 533.559 117.31 535.233 118.984C536.906 120.657 540.254 121.498 537.323 124.004C534.393 126.518 530.622 126.518 529.372 128.608C528.115 130.698 527.699 135.662 527.699 135.662C527.699 135.662 526.24 141.163 519.855 142.004C513.47 142.844 501.324 147.448 498.818 146.191C496.304 144.934 498.818 139.073 495.887 137.816C492.957 136.559 488.353 139.073 489.186 140.747C490.026 142.42 490.859 144.108 489.186 146.407C487.512 148.705 476.638 148.705 475.166 149.962C473.693 151.219 470.763 154.566 469.506 157.08C468.249 159.594 464.902 165.031 463.228 165.031C461.555 165.031 464.069 168.378 465.742 172.149C467.416 175.92 472.86 186.385 467.832 188.058C462.812 189.732 455.277 187.218 450.666 190.148C446.062 193.079 445.645 204.8 448.992 209.821C452.34 214.842 455.694 217.356 460.714 216.939C465.735 216.522 470.346 216.939 472.853 212.335C475.367 207.731 476.624 205.217 477.873 199.773C479.13 194.328 474.943 190.141 479.547 189.724C484.151 189.308 484.991 193.071 487.922 189.308C490.852 185.537 493.366 181.773 498.803 181.357C504.248 180.94 498.387 188.891 502.15 190.565C505.921 192.238 511.358 193.495 513.456 196.426C515.553 199.356 518.9 204.8 516.803 207.731C514.713 210.661 511.358 217.032 513.872 216.989C516.386 216.946 519.733 217.779 521.407 212.759C523.08 207.738 526.011 202.71 523.92 199.78C521.83 196.849 521.407 190.989 518.9 190.148C516.386 189.308 515.129 186.801 513.456 184.287C511.782 181.773 504.664 179.267 510.942 180.1C517.219 180.94 526.851 184.287 527.684 187.634C528.524 190.981 528.524 193.079 530.198 198.099C531.872 203.12 529.358 206.891 534.802 208.148C540.246 209.404 541.08 209.821 541.92 212.752C542.76 215.682 541.08 219.869 542.76 215.682C544.434 211.495 544.017 209.821 543.177 206.05C542.336 202.279 538.989 197.259 543.177 196.419C547.364 195.578 548.621 194.745 550.295 196.419C551.968 198.092 550.711 199.766 552.385 203.536C554.058 207.307 554.058 208.14 558.662 209.397C563.266 210.654 562.009 214.001 567.037 214.418C572.058 214.834 577.919 211.258 577.919 217.442C577.919 223.626 576.245 224.883 577.919 229.07C579.592 233.258 577.919 237.021 573.731 235.772C569.544 234.515 564.523 232.841 559.079 233.258C553.635 233.674 551.544 227.397 546.94 228.654C542.336 229.911 536.476 231.239 536.059 236.016C535.642 240.792 538.989 243.723 536.476 243.723C533.962 243.723 525.17 239.952 520.983 236.605C516.795 233.258 511.351 233.674 508.428 231.584C505.497 229.494 500.053 225.307 500.893 223.633C501.734 221.96 507.595 219.029 504.664 216.515C501.734 214.001 495.873 214.001 490.852 215.675C485.832 217.348 483.318 219.446 477.873 222.793C472.429 226.14 466.992 229.494 465.311 228.237C463.638 226.98 464.895 224.466 461.54 225.307C458.193 226.147 455.679 227.82 454.422 229.494C453.166 231.168 446.68 237.869 446.78 241.632C446.881 245.403 444.791 255.444 440.603 265.076C436.416 274.708 431.812 278.472 429.722 283.076C427.632 287.68 422.604 298.561 425.118 306.103C427.632 313.637 429.305 319.082 431.395 323.686C433.485 328.29 436.416 334.567 440.603 335.407C444.791 336.248 453.999 343.782 454.839 345.456C455.679 347.129 459.026 349.643 466.144 350.06C473.262 350.476 476.193 350.476 481.63 347.97C487.074 345.456 496.656 340.852 501.49 341.692C506.323 342.532 512.608 342.109 517.212 350.275C521.816 358.442 518.469 363.046 522.656 368.066C526.844 373.087 529.358 377.274 527.26 380.205C525.17 383.135 519.726 386.482 523.913 388.996C528.101 391.51 533.121 392.767 535.219 396.531C537.309 400.301 542.753 411.183 541.92 415.37C541.08 419.558 537.316 428.766 538.989 435.467C540.663 442.168 537.732 445.932 540.663 450.536C543.593 455.14 548.614 462.258 551.544 465.605C554.475 468.952 561.593 476.07 560.336 480.257C559.079 484.445 560.336 491.979 564.107 496.583C567.878 501.187 575.017 507.465 578.565 508.721C582.106 509.978 581.273 513.325 584.203 513.325C587.134 513.325 589.648 508.721 594.668 506.624C599.689 504.534 607.647 502.437 610.578 495.743C613.508 489.041 613.925 485.694 613.925 481.507C613.925 477.32 608.48 472.299 613.925 468.112C619.369 463.924 622.716 459.32 624.39 455.973C626.063 452.626 628.16 444.251 628.16 437.557C628.16 430.863 626.07 427.092 630.25 423.745C634.438 420.398 639.042 418.725 636.952 415.37C634.862 412.023 633.181 409.926 629.834 398.204C626.487 386.482 622.716 383.968 623.973 380.205C625.23 376.434 623.973 371.83 626.063 365.552C628.153 359.275 627.737 357.178 632.764 353.831C637.785 350.483 646.763 342.949 646.763 336.248C646.763 329.546 649.04 331.227 646.763 322.852C644.486 314.478 645.319 313.644 641.556 310.29C637.785 306.943 637.368 305.27 634.438 309.033C631.507 312.797 629.417 322.845 625.23 319.498C621.042 316.151 615.182 305.686 612.251 302.332C609.321 298.985 613.091 298.144 607.23 293.54C601.37 288.936 600.113 288.096 595.509 280.985C590.905 273.868 588.807 270.937 588.807 266.75C588.807 262.562 584.62 257.958 587.134 254.611C589.648 251.264 593.835 254.611 595.925 259.215C598.015 263.819 606.807 271.354 608.487 276.381C610.161 281.402 618.119 295.221 620.626 297.311C623.14 299.401 622.716 306.943 626.903 305.686C631.091 304.429 633.605 294.381 636.952 292.707C640.299 291.034 647.833 296.054 651.604 289.777C655.375 283.499 660.395 277.638 657.882 273.034C655.368 268.43 656.625 262.153 654.111 259.639C651.597 257.125 643.229 262.986 637.785 260.056C632.341 257.125 621.876 249.591 622.299 243.313C622.716 237.036 637.368 214.425 633.605 205.217C629.834 196.009 604.3 145.351 594.252 142.004C584.203 138.657 573.322 129.865 574.579 119.4C575.836 108.935 564.53 98.8871 564.53 98.8871V98.8727Z" fill="white"/>
<path d="M407.089 19.3201C398.434 9.83913 373.295 2.83618 360.101 3.24558C346.914 3.65498 328.369 5.30696 321.359 6.13295C314.349 6.95894 304.422 9.02032 300.939 8.60374C297.455 8.19433 287.148 9.01314 282.616 13.9619C278.084 18.9106 268.603 20.5554 269.839 26.7396C271.074 32.9237 275.197 33.3331 280.964 34.5685C286.732 35.8039 293.325 31.6812 294.977 34.5685C296.629 37.4559 294.977 44.4589 296.629 46.5202C298.281 48.5816 304.875 51.0524 306.936 54.3492C308.998 57.646 314.765 57.2366 316.417 62.5947C318.069 67.9529 318.479 88.9689 320.54 92.6823C322.601 96.3885 320.949 100.511 323.011 103.399C325.072 106.286 338.259 114.941 341.973 114.941C345.686 114.941 341.973 104.634 346.095 99.2758C350.218 93.9177 362.17 90.6209 370.825 88.1501C379.48 85.6793 384.428 81.693 391.431 77.5056C398.441 73.3182 408.332 70.8259 407.096 64.4478C405.861 58.0697 403.8 58.0697 405.035 55.1824C406.27 52.295 408.332 53.121 410.803 47.3534C413.273 41.5859 416.57 39.5245 413.273 31.6883C409.977 23.8594 407.089 19.3272 407.089 19.3272V19.3201Z" fill="white"/>
<path d="M459.25 124.602C457.993 124.02 452.857 124.602 452.656 125.837C452.448 127.073 453.482 128.516 454.1 129.134C454.718 129.752 456.341 132.431 455.939 133.465C455.536 134.492 454.897 139.441 455.939 140.676C456.98 141.912 459.041 143.765 459.25 145.625C459.458 147.478 458.84 151.192 458.424 153.253C458.014 155.314 456.98 157.584 458.215 159.229C459.451 160.881 460.686 160.881 461.929 160.464C463.164 160.055 462.812 160.672 463.847 158.611C464.881 156.55 467.086 154.488 467.912 152.844C468.738 151.192 469.564 150.164 469.356 148.512C469.147 146.86 469.564 146.042 467.912 144.39C466.26 142.738 466.26 142.537 465.642 140.676C465.024 138.823 466.669 138.206 464.816 136.554C462.963 134.902 463.789 134.083 461.929 134.284C460.069 134.485 459.659 136.554 459.458 133.458C459.25 130.369 463.811 129.615 462.661 127.719C461.749 126.218 460.55 125.198 459.257 124.602H459.25Z" fill="white"/>
<path d="M451.951 139.341C451.283 138.479 450.916 137.84 449.3 137.725C447.684 137.61 445.149 137.84 444.689 139.341C444.23 140.842 443.77 141.919 442.613 142.53C441.457 143.14 440.308 143.025 439.733 144.986C439.159 146.947 438.117 148.211 438.347 149.597C438.577 150.984 436.896 151.328 438.311 153.052C439.726 154.783 439.841 155.473 440.997 155.473C442.154 155.473 442.233 155.817 444.847 154.898C447.454 153.979 449.185 152.707 450.22 151.903C451.254 151.099 452.504 149.712 452.626 149.023C452.755 148.333 452.963 145.568 452.626 144.871C452.288 144.182 451.369 143.643 451.599 142.53C451.829 141.416 452.669 140.274 451.944 139.341H451.951Z" fill="white"/>
<path d="M241.948 47.7333C238.788 47.4388 230.025 47.1659 227.475 47.7333C224.918 48.3007 222.081 51.1378 220.099 52.5599C218.109 53.9821 214.992 53.6948 214.992 56.2518C214.992 58.8087 214.705 62.2132 217.262 62.7807C219.819 63.3481 221.794 65.8261 228.467 64.447C235.139 63.068 240.533 62.1342 243.37 64.447C246.207 66.7598 248.764 67.0399 251.321 71.0118C253.878 74.9838 259.272 76.9733 260.407 81.2325C261.542 85.4918 255.868 88.8963 258.137 92.0207C260.407 95.1451 268.638 94.2904 270.908 97.6949C273.178 101.099 274.032 105.646 277.15 106.493C280.274 107.348 285.101 105.639 285.948 102.522C286.803 99.3971 285.948 94.5705 282.544 93.1555C279.139 91.7334 276.302 88.0488 277.437 87.194C278.572 86.3393 289.64 89.751 291.342 86.9067C293.045 84.0696 290.207 78.1872 287.65 77.0092C285.093 75.8313 280.554 72.4268 276.295 70.1571C272.036 67.8874 269.486 56.8192 264.939 56.8192C260.393 56.8192 259.833 62.2132 257.276 61.0784C254.719 59.9436 251.314 53.4147 249.325 51.145C247.335 48.8753 245.618 48.0781 241.948 47.7405V47.7333Z" fill="white"/>
<path d="M424.443 89.8514C421.821 88.3862 414.057 86.4397 409.963 87.4596C405.862 88.4867 402.45 87.1149 399.721 88.4795C396.991 89.8514 393.917 92.5808 396.991 94.2902C400.065 95.9996 402.795 92.9255 403.822 95.6549C404.849 98.3842 403.477 99.0666 407.233 100.438C410.99 101.803 410.645 101.121 416.456 100.438C422.259 99.7561 425.678 99.4113 426.698 96.3372C427.725 93.2631 426.619 91.0652 424.45 89.8514H424.443Z" fill="white"/>
</g>
<path d="M303.999 580.641C456.784 580.641 580.641 456.784 580.641 303.999C580.641 151.214 456.784 27.3574 303.999 27.3574C151.214 27.3574 27.3574 151.214 27.3574 303.999C27.3574 456.784 151.214 580.641 303.999 580.641Z" stroke="url(#paint1_linear_279_2201)" stroke-width="10" stroke-miterlimit="10"/>
<path d="M234.165 329.289C228.792 343.152 220.518 354.076 209.349 362.07C198.173 370.064 185.216 374.058 170.484 374.058C150.632 374.058 133.925 367.256 120.379 353.638C106.826 340.027 100.053 323.292 100.053 303.439C100.053 283.587 106.826 267.505 120.379 254.081C133.925 240.657 150.445 233.941 169.924 233.941C185.158 233.941 198.489 237.942 209.917 245.929C221.344 253.923 229.424 265.099 234.172 279.457H204.58C196.586 265.724 184.972 258.858 169.738 258.858C157.621 258.858 147.544 263.196 139.485 271.872C131.433 280.556 127.404 291.007 127.404 303.246C127.404 315.485 131.397 326.1 139.391 335.086C147.63 344.452 157.807 349.135 169.924 349.135C185.28 349.135 196.708 342.52 204.199 329.282H234.172L234.165 329.289Z" fill="url(#paint2_linear_279_2201)"/>
<path d="M328.472 371.429H259.541V236.57H286.325V346.894H328.472V371.429Z" fill="url(#paint3_linear_279_2201)"/>
<path d="M491.822 236.57V371.429H465.786V295.194C465.786 292.199 465.973 287.796 466.346 281.993C466.72 276.182 466.906 271.851 466.906 268.978H466.533L430.57 371.436H412.211L376.249 268.978H375.875C375.875 271.851 376.062 276.189 376.435 281.993C376.809 287.796 376.996 292.199 376.996 295.194V371.429H350.959V236.57H388.495L421.391 334.245L454.279 236.57H491.815H491.822Z" fill="url(#paint4_linear_279_2201)"/>
<defs>
<radialGradient id="paint0_radial_279_2201" cx="0" cy="0" r="1" gradientUnits="userSpaceOnUse" gradientTransform="translate(304 304) scale(304)">
<stop stop-color="#E1F3FC"/>
<stop offset="0.51" stop-color="#B9E4F8"/>
<stop offset="1" stop-color="#90D4F4"/>
</radialGradient>
<linearGradient id="paint1_linear_279_2201" x1="303.999" y1="23.7662" x2="303.999" y2="584.232" gradientUnits="userSpaceOnUse">
<stop stop-color="#E30613"/>
<stop offset="1" stop-color="#24173F"/>
</linearGradient>
<linearGradient id="paint2_linear_279_2201" x1="167.109" y1="233.949" x2="167.109" y2="374.051" gradientUnits="userSpaceOnUse">
<stop stop-color="#E30613"/>
<stop offset="1" stop-color="#24173F"/>
</linearGradient>
<linearGradient id="paint3_linear_279_2201" x1="294.003" y1="236.57" x2="294.003" y2="371.429" gradientUnits="userSpaceOnUse">
<stop stop-color="#E30613"/>
<stop offset="1" stop-color="#24173F"/>
</linearGradient>
<linearGradient id="paint4_linear_279_2201" x1="421.391" y1="236.57" x2="421.391" y2="371.429" gradientUnits="userSpaceOnUse">
<stop stop-color="#E30613"/>
<stop offset="1" stop-color="#24173F"/>
</linearGradient>
</defs>
</svg>
