<svg width="50" height="50" viewBox="0 0 50 50" fill="none" xmlns="http://www.w3.org/2000/svg">
<circle cx="25" cy="25" r="25" fill="#FF3C3C"/>
<path d="M31.7338 20.1298L32 19.5002H27.4543C27.4475 19.4547 27.4377 19.3953 27.4257 19.3192C27.3377 18.7726 27.1286 17.474 26.906 16.0959V16.095C26.7594 15.189 26.6067 14.249 26.4789 13.4645C26.415 13.0728 26.3571 12.7195 26.309 12.4292C26.2609 12.1389 26.2225 11.9115 26.1977 11.7698C26.1706 11.6194 26.1307 11.476 26.0796 11.3395C26.0277 11.2031 25.9645 11.0737 25.8909 10.9548C25.6713 10.5927 25.366 10.3103 25.0171 10.1153C24.6674 9.92113 24.2734 9.81445 23.865 9.81445C23.6154 9.81445 23.3612 9.85469 23.11 9.94038C22.8596 10.0252 22.613 10.1572 22.3798 10.3374C22.0843 10.5674 21.8113 10.6855 21.5767 10.7502C21.4587 10.7817 21.3504 10.8 21.2541 10.8097C21.1579 10.8202 21.0736 10.8219 21 10.8219C20.9293 10.8219 20.8691 10.8254 20.8112 10.8254C20.7488 10.8254 20.6901 10.8219 20.6239 10.8123C20.5246 10.7975 20.4043 10.7677 20.2404 10.6943C20.075 10.6226 19.8674 10.5072 19.6042 10.3253C19.1282 9.99646 18.6116 9.84781 18.1183 9.84781C17.8476 9.84781 17.5837 9.89331 17.3347 9.97899C16.9618 10.1067 16.6218 10.3253 16.3511 10.6287C16.2157 10.78 16.0985 10.9514 16.0052 11.1438C15.9119 11.3353 15.842 11.5452 15.8029 11.7699H15.8037C15.7781 11.9116 15.7405 12.139 15.6924 12.4293C15.548 13.3003 15.3141 14.7362 15.0938 16.096C14.8712 17.4742 14.6629 18.7727 14.5749 19.3193C14.5629 19.3954 14.5523 19.4549 14.5456 19.5003H10L10.2662 20.1299C10.2797 20.1614 10.4106 20.4631 10.74 20.8977C11.2318 21.5501 12.1687 22.4998 13.796 23.2807C14.2615 23.5028 14.7826 23.7118 15.3647 23.8972V24.1298L17.1498 26.5292C17.1498 26.5292 19.2148 26.9839 19.3825 26.9193C19.5495 26.8546 21 25.1668 21 25.1668C21 25.1668 22.4513 26.8545 22.6183 26.9193C22.7852 26.984 24.8502 26.5292 24.8502 26.5292L26.6354 24.1297V23.8971C28.5793 23.2797 29.8351 22.393 30.6119 21.6321C31.4285 20.8329 31.715 20.1753 31.7338 20.1298ZM15.8339 16.2576C15.9797 15.3516 16.1332 14.4107 16.2602 13.6281C16.3241 13.2363 16.3828 12.8839 16.4302 12.5953C16.4783 12.3059 16.5166 12.0794 16.5407 11.943C16.5708 11.7681 16.6317 11.6098 16.7197 11.4637C16.852 11.2469 17.0491 11.0597 17.2912 10.9285C17.5333 10.7973 17.8191 10.7221 18.1184 10.723C18.4824 10.723 18.8644 10.8323 19.2208 11.0772C19.6103 11.3465 19.9171 11.5039 20.1773 11.5931C20.3067 11.6368 20.4247 11.6648 20.5308 11.6806C20.6376 11.6963 20.7308 11.6999 20.8112 11.6999C20.8865 11.6999 20.9488 11.6963 21 11.6963C21.0857 11.6963 21.1955 11.6937 21.3219 11.6806C21.5114 11.6614 21.74 11.6176 21.9911 11.5232C22.2423 11.4287 22.516 11.2836 22.7973 11.0649C22.9665 10.9337 23.1432 10.8393 23.3221 10.7781C23.5011 10.7169 23.6846 10.6889 23.865 10.6889C24.0606 10.6889 24.2546 10.7239 24.4336 10.7877C24.7035 10.883 24.9427 11.0457 25.1209 11.2468C25.2088 11.3465 25.2833 11.4567 25.3405 11.5739C25.3977 11.6902 25.4382 11.8135 25.4608 11.9429C25.4849 12.0794 25.5224 12.3058 25.5706 12.5953C25.7135 13.4619 25.9481 14.8978 26.1669 16.2567C26.1962 16.4369 26.2248 16.6144 26.2534 16.791H15.7474C15.776 16.6144 15.8045 16.4369 15.8339 16.2576ZM27.7077 22.5696C26.1932 23.2552 24.035 23.7991 21 23.7991C18.8816 23.7991 17.1905 23.5333 15.8474 23.1398C13.8328 22.5504 12.6003 21.6741 11.8732 20.9632C11.6535 20.7489 11.4806 20.5478 11.346 20.3746H30.6547C30.6284 20.4079 30.6013 20.4429 30.5727 20.4778C30.0975 21.0585 29.2222 21.884 27.7077 22.5696Z" fill="white"/>
<path d="M13.3426 28.7193C13.5161 28.3656 13.6691 28.0956 13.7779 27.9147C13.8319 27.8256 13.8752 27.7581 13.904 27.7131C13.9184 27.6915 13.9295 27.6753 13.937 27.6645C13.9402 27.66 13.943 27.6564 13.9444 27.6537L13.9458 27.6519H13.9463L13.9435 27.6456L13.9426 27.6429L13.6719 26.9238C13.6635 26.9364 13.3775 27.3405 13.005 28.1001C12.6329 28.8606 12.1734 29.9775 11.8228 31.4193L11.7288 31.8045L13.1873 33.3273C12.9659 33.645 12.6497 34.122 12.3148 34.6962C12.006 35.2263 11.6828 35.8401 11.4042 36.4953C11.2656 36.822 11.1381 37.1594 11.0293 37.505C10.9447 37.7759 10.8712 38.0513 10.8145 38.3312H11.3242C11.3539 38.2124 11.3888 38.0927 11.427 37.973C11.5916 37.4474 11.8199 36.9065 12.0701 36.398C12.4459 35.6339 12.8691 34.9419 13.197 34.4442C13.3612 34.1949 13.5016 33.9941 13.6007 33.8565C13.6505 33.788 13.6895 33.735 13.716 33.6981C13.7295 33.68 13.7393 33.6675 13.7458 33.6584C13.749 33.654 13.7518 33.6512 13.7532 33.6485L13.7551 33.6458H13.7556L14.0737 33.23L12.3413 31.4211C12.6497 30.2727 13.0292 29.3592 13.3426 28.7193Z" fill="white"/>
<path d="M30.9702 37.505C30.7804 36.9002 30.5321 36.3188 30.266 35.777C29.8675 34.967 29.4294 34.2524 29.0894 33.7358C28.9871 33.5801 28.8931 33.4424 28.8122 33.3272L30.2707 31.8044L30.1772 31.4193C29.8261 29.9775 29.367 28.8606 28.9945 28.1001C28.6225 27.3405 28.336 26.9364 28.3271 26.9238L28.0583 27.6393L28.0537 27.6519C28.0616 27.6636 28.3295 28.0452 28.6736 28.7535C28.9834 29.3907 29.3554 30.2925 29.6587 31.4211L27.9258 33.2301L28.2444 33.6459C28.2458 33.6477 28.3829 33.8277 28.5936 34.1337C28.8038 34.4397 29.0875 34.8726 29.3824 35.3811C29.6782 35.8887 29.9842 36.4719 30.2391 37.073C30.366 37.3737 30.48 37.6778 30.5739 37.9767C30.6111 38.0955 30.6455 38.2143 30.6762 38.3312H31.185C31.1283 38.0513 31.0553 37.7759 30.9702 37.505Z" fill="white"/>
<path d="M22.4162 33.0938H20.1777V34.676H22.4162V33.0938Z" fill="white"/>
<path d="M20.4313 35.5098L20.084 38.333H22.5096L22.1623 35.5098H20.4313Z" fill="white"/>
<path d="M43 24.0742H38.5M38.5 24.0742H34M38.5 24.0742V19.5742M38.5 24.0742V28.5742" stroke="white" stroke-width="2" stroke-linecap="round"/>
</svg>
