<svg width="178" height="36" viewBox="0 0 178 36" fill="none" xmlns="http://www.w3.org/2000/svg">
<path d="M35.8981 10.5781C35.8117 8.66133 35.502 7.34988 35.0627 6.20416C34.6018 5.02242 33.9897 4.01361 32.9887 3.01922C31.9877 2.02482 30.9867 1.39792 29.8057 0.943955C28.6606 0.497198 27.35 0.194556 25.4344 0.108086C23.5116 0.0216173 22.8995 0 18.0169 0C13.1271 0 12.515 0.0216173 10.5994 0.108086C8.68384 0.194556 7.37318 0.504404 6.22815 0.943955C5.03991 1.40512 4.03171 2.01761 3.03791 3.01922C2.04411 4.02082 1.41759 5.02242 0.963896 6.20416C0.524609 7.34988 0.214947 8.66133 0.128529 10.5781C0.0421121 12.502 0.0205078 13.1145 0.0205078 18C0.0205078 22.8927 0.0421121 23.5052 0.128529 25.4219C0.214947 27.3387 0.524609 28.6501 0.963896 29.7958C1.42479 30.9776 2.03691 31.9864 3.03791 32.9808C4.03171 33.9824 5.03991 34.6021 6.22095 35.056C7.36598 35.5028 8.67664 35.8054 10.5922 35.8919C12.515 35.9784 13.1271 36 18.0097 36C22.8995 36 23.5116 35.9784 25.4272 35.8919C27.3428 35.8054 28.6534 35.4956 29.7985 35.056C30.9795 34.5949 31.9877 33.9824 32.9815 32.9808C33.9753 31.9792 34.6018 30.9776 35.0555 29.7958C35.502 28.6501 35.8045 27.3387 35.8909 25.4219C35.9773 23.498 35.9989 22.8855 35.9989 18C35.9989 13.1145 35.9845 12.4948 35.8981 10.5781ZM32.6646 25.2778C32.5854 27.036 32.2902 27.9944 32.0453 28.6213C31.7213 29.4572 31.3252 30.0625 30.6914 30.6966C30.0577 31.3307 29.46 31.7126 28.6174 32.0512C27.9837 32.2962 27.0259 32.5917 25.276 32.6709C23.382 32.7574 22.8131 32.779 18.0025 32.779C13.1919 32.779 12.623 32.7574 10.729 32.6709C8.9719 32.5917 8.01411 32.2962 7.38758 32.0512C6.55221 31.727 5.94729 31.3307 5.31357 30.6966C4.67984 30.0625 4.29816 29.4644 3.9597 28.6213C3.71485 27.9872 3.41959 27.0288 3.34037 25.2778C3.25395 23.3827 3.23235 22.8135 3.23235 18C3.23235 13.1865 3.25395 12.6173 3.34037 10.7222C3.41959 8.96397 3.71485 8.0056 3.9597 7.3787C4.28376 6.54283 4.67984 5.93755 5.31357 5.30344C5.94729 4.66934 6.54501 4.28743 7.38758 3.94876C8.02131 3.70376 8.9791 3.40833 10.729 3.32906C12.623 3.24259 13.1919 3.22098 18.0025 3.22098C22.8131 3.22098 23.382 3.24259 25.276 3.32906C27.0331 3.40833 27.9909 3.70376 28.6174 3.94876C29.4528 4.27302 30.0577 4.66934 30.6914 5.30344C31.3252 5.93755 31.7068 6.53563 32.0453 7.3787C32.2902 8.01281 32.5854 8.97118 32.6646 10.7222C32.7511 12.6173 32.7727 13.1865 32.7727 18C32.7727 22.8135 32.7439 23.3827 32.6646 25.2778Z" fill="white"/>
<path d="M18.0035 8.74805C12.8905 8.74805 8.75684 12.8914 8.75684 18.0002C8.75684 23.1163 12.8977 27.2525 18.0035 27.2525C23.1093 27.2525 27.2501 23.1019 27.2501 18.0002C27.2501 12.8842 23.1165 8.74805 18.0035 8.74805ZM18.0035 24.0026C14.6908 24.0026 12.0047 21.3149 12.0047 18.0002C12.0047 14.6856 14.6908 11.9978 18.0035 11.9978C21.3161 11.9978 24.0023 14.6856 24.0023 18.0002C24.0023 21.3149 21.3161 24.0026 18.0035 24.0026Z" fill="white"/>
<path d="M27.6077 10.552C28.8009 10.552 29.7681 9.58414 29.7681 8.39025C29.7681 7.19635 28.8009 6.22852 27.6077 6.22852C26.4145 6.22852 25.4473 7.19635 25.4473 8.39025C25.4473 9.58414 26.4145 10.552 27.6077 10.552Z" fill="white"/>
<path d="M0 18C0 22.8927 0.0216043 23.5052 0.108022 25.4219C0.194439 27.3387 0.504101 28.6501 0.943389 29.7958C1.40428 30.9776 2.0164 31.9864 3.0174 32.9808C4.0112 33.9752 5.0194 34.6021 6.20044 35.056C7.34547 35.5028 8.65613 35.8054 10.5717 35.8919C12.4945 35.9784 13.1066 36 17.9892 36C22.879 36 23.4911 35.9784 25.4067 35.8919C27.3223 35.8054 28.6329 35.4956 29.778 35.056C30.959 34.5949 31.9672 33.9824 32.961 32.9808C33.9548 31.9864 34.5813 30.9776 35.035 29.7958C35.4815 28.6501 35.784 27.3387 35.8704 25.4219C35.9568 23.498 35.9784 22.8855 35.9784 18C35.9784 13.1073 35.9568 12.4948 35.8704 10.5781C35.784 8.66133 35.4743 7.34988 35.035 6.20416C34.5741 5.02242 33.962 4.01361 32.961 3.01922C31.9744 2.01761 30.9662 1.39792 29.7852 0.943955C28.6401 0.497198 27.3295 0.194556 25.4139 0.108086C23.4911 0.0216173 22.879 0 17.9964 0C13.1066 0 12.4945 0.0216173 10.5789 0.108086C8.66333 0.194556 7.35267 0.504404 6.20764 0.943955C5.02661 1.40512 4.0184 2.01761 3.02461 3.01922C2.03081 4.02082 1.40428 5.02242 0.95059 6.20416C0.504101 7.34988 0.194439 8.66133 0.108022 10.5781C0.0216043 12.4948 0 13.1073 0 18ZM3.24785 18C3.24785 13.1938 3.26945 12.6173 3.35587 10.7222C3.43509 8.96397 3.73035 8.0056 3.9752 7.3787C4.29926 6.54283 4.69534 5.93755 5.32907 5.30344C5.96279 4.66934 6.56051 4.28743 7.40308 3.94876C8.03681 3.70376 8.9946 3.40833 10.7445 3.32906C12.6385 3.24259 13.2074 3.22098 18.018 3.22098C22.8286 3.22098 23.3975 3.24259 25.2915 3.32906C27.0486 3.40833 28.0064 3.70376 28.6329 3.94876C29.4683 4.27302 30.0732 4.66934 30.7069 5.30344C31.3407 5.93755 31.7223 6.53563 32.0608 7.3787C32.3057 8.01281 32.6009 8.97118 32.6801 10.7222C32.7666 12.6173 32.7882 13.1865 32.7882 18C32.7882 22.8135 32.7666 23.3827 32.6801 25.2778C32.6009 27.036 32.3057 27.9944 32.0608 28.6213C31.7367 29.4572 31.3407 30.0625 30.7069 30.6966C30.0732 31.3307 29.4755 31.7126 28.6329 32.0512C27.9992 32.2962 27.0414 32.5917 25.2915 32.6709C23.3975 32.7574 22.8286 32.779 18.018 32.779C13.2074 32.779 12.6385 32.7574 10.7445 32.6709C8.9874 32.5917 8.02961 32.2962 7.40308 32.0512C6.56771 31.727 5.96279 31.3307 5.32907 30.6966C4.69534 30.0625 4.31366 29.4644 3.9752 28.6213C3.73035 27.9872 3.43509 27.0288 3.35587 25.2778C3.26225 23.3827 3.24785 22.8062 3.24785 18Z" fill="white"/>
<path d="M116 0C112.44 0 108.96 1.05568 106 3.03354C103.04 5.0114 100.733 7.82261 99.3702 11.1117C98.0078 14.4007 97.6513 18.02 98.3459 21.5116C99.0404 25.0033 100.755 28.2105 103.272 30.728C105.789 33.2453 108.997 34.9596 112.488 35.6541C115.98 36.3487 119.599 35.9921 122.888 34.6297C126.177 33.2673 128.989 30.9604 130.967 28.0003C132.944 25.0402 134 21.5602 134 18C134 13.2261 132.103 8.64773 128.728 5.27208C125.352 1.89641 120.774 0 116 0ZM124.843 12.33L121.895 26.2575C121.67 27.2475 121.085 27.4725 120.253 27.0225L115.753 23.6925L113.503 25.785C113.397 25.9234 113.26 26.0358 113.104 26.1139C112.949 26.1918 112.777 26.2332 112.602 26.235L112.918 21.735L121.242 14.1975C121.625 13.8825 121.243 13.7025 120.703 14.0175L110.487 20.43L105.987 19.035C105.02 18.7425 104.997 18.0675 106.19 17.6175L123.538 10.8675C124.393 10.62 125.113 11.115 124.843 12.33Z" fill="white"/>
<circle cx="67" cy="18" r="18" fill="white"/>
<path d="M73.9937 17.9806L73.2163 23.1893H69.1307V35.8768C68.2369 36.0211 67.3225 36 66.391 36C65.4595 36 64.5451 35.8318 63.6513 35.6875V23.1893H59.1992V17.9806H63.6513V14.0107C63.6513 9.49527 66.2677 7 70.2746 7C72.1924 7 74.1992 7.35194 74.1992 7.35194V11.7864H71.9869C69.8088 11.7864 69.1307 13.1766 69.1307 14.6019V17.9806H73.9937Z" fill="#FF3C3C"/>
<path d="M157.603 21.4656L163.495 18.0063L157.603 14.5469V21.4656Z" fill="white"/>
<path d="M160 0C150.058 0 142 8.05781 142 18C142 27.9422 150.058 36 160 36C169.942 36 178 27.9422 178 18C178 8.05781 169.942 0 160 0ZM169 21.2203C169 24.3211 165.899 24.3211 165.899 24.3211H154.101C151 24.3211 151 21.2203 151 21.2203V14.7867C151 11.6859 154.101 11.6859 154.101 11.6859H165.899C169 11.6859 169 14.7867 169 14.7867V21.2203Z" fill="white"/>
</svg>
